<?xml version="1.0" encoding="utf-8"?>
<!-- Generator: Adobe Illustrator 21.0.0, SVG Export Plug-In . SVG Version: 6.00 Build 0)  -->
<svg version="1.1" id="Layer_1" xmlns="http://www.w3.org/2000/svg" xmlns:xlink="http://www.w3.org/1999/xlink" x="0px" y="0px"
	 viewBox="0 0 683 386" style="enable-background:new 0 0 683 386;" xml:space="preserve">
<style type="text/css">
	.st0{fill:#5874DB;}
	.st1{fill:none;stroke:#5874DB;stroke-width:1.5;stroke-miterlimit:10;}
	.st2{fill:#FFFFFF;stroke:#5874DB;stroke-width:1.5;stroke-miterlimit:10;}
	.st3{fill:#FFFFFF;}
	.st4{opacity:0.6;fill:#FFFFFF;stroke:#5874DB;stroke-width:1.5;stroke-miterlimit:10;enable-background:new    ;}
	.st5{opacity:0.6;}
	.st6{opacity:0.3;fill:#FFFFFF;stroke:#5874DB;stroke-width:1.5;stroke-miterlimit:10;enable-background:new    ;}
	.st7{opacity:0.3;}
	.st8{fill:#D87A59;}
	.st9{enable-background:new    ;}
</style>
<path class="st0" d="M116.5,46h-78c-5.5,0-10-4.5-10-10V18c0-5.5,4.5-10,10-10h78c5.5,0,10,4.5,10,10v18C126.5,41.5,122,46,116.5,46
	z"/>
<line class="st1" x1="77.5" y1="46" x2="77.5" y2="231"/>
<path class="st2" d="M669.5,278h-88c-5.5,0-10-4.5-10-10v-18c0-5.5,4.5-10,10-10h88c5.5,0,10,4.5,10,10v18
	C679.5,273.5,675,278,669.5,278z"/>
<g>
	<path class="st3" d="M47.1,19.9c0.3,0,0.5,0.1,0.7,0.3s0.3,0.4,0.3,0.7v4.9c0.4-0.5,0.9-0.9,1.5-1.2s1.2-0.4,1.9-0.4
		c0.9,0,1.6,0.2,2.3,0.6s1.3,1,1.7,1.8s0.6,1.6,0.6,2.5s-0.2,1.8-0.6,2.5c-0.4,0.8-1,1.4-1.8,1.8c-0.8,0.4-1.6,0.7-2.5,0.7
		s-1.8-0.2-2.5-0.7c-0.8-0.4-1.3-1-1.8-1.8s-0.7-1.6-0.7-2.5v-8.2c0-0.3,0.1-0.5,0.3-0.7C46.6,20,46.8,19.9,47.1,19.9z M51.1,32.5
		c0.6,0,1.1-0.1,1.6-0.4c0.5-0.3,0.9-0.7,1.2-1.2s0.4-1.1,0.4-1.7s-0.1-1.2-0.4-1.7c-0.3-0.5-0.7-0.9-1.2-1.2
		c-0.5-0.3-1-0.4-1.6-0.4S50,26,49.5,26.3s-0.9,0.7-1.1,1.2C48.1,28,48,28.6,48,29.2s0.1,1.2,0.4,1.7c0.3,0.5,0.7,0.9,1.1,1.2
		C50,32.3,50.5,32.5,51.1,32.5z"/>
	<path class="st3" d="M60.7,20.5c0.2,0.2,0.4,0.5,0.4,0.8S61,22,60.7,22.2c-0.2,0.2-0.5,0.4-0.8,0.4s-0.6-0.1-0.8-0.4
		c-0.2-0.2-0.4-0.5-0.4-0.8s0.1-0.6,0.4-0.8c0.2-0.2,0.5-0.4,0.8-0.4C60.2,20.2,60.5,20.3,60.7,20.5z M59.2,24.4
		c0.2-0.2,0.4-0.3,0.7-0.3s0.5,0.1,0.7,0.3s0.3,0.4,0.3,0.7v8c0,0.3-0.1,0.5-0.3,0.7S60.2,34,59.9,34s-0.5-0.1-0.7-0.3
		s-0.3-0.4-0.3-0.7v-8C59,24.8,59.1,24.6,59.2,24.4z"/>
	<path class="st3" d="M69,32.5c0.1,0.2,0.2,0.4,0.2,0.6c0,0.3-0.1,0.5-0.3,0.6c-0.2,0.2-0.5,0.3-0.8,0.3h-0.3
		c-0.6,0-1.1-0.2-1.6-0.5s-0.9-0.7-1.1-1.3c-0.3-0.5-0.4-1.1-0.4-1.8V26h-0.8c-0.3,0-0.5-0.1-0.6-0.2c-0.2-0.1-0.2-0.3-0.2-0.5
		s0.1-0.4,0.2-0.6c0.2-0.1,0.4-0.2,0.6-0.2h0.8v-2.6c0-0.3,0.1-0.5,0.3-0.6c0.2-0.2,0.4-0.3,0.6-0.3c0.3,0,0.5,0.1,0.6,0.3
		c0.2,0.2,0.3,0.4,0.3,0.6v2.6H68c0.3,0,0.5,0.1,0.6,0.2c0.2,0.1,0.2,0.3,0.2,0.6c0,0.2-0.1,0.4-0.2,0.5C68.4,25.9,68.2,26,68,26
		h-1.5v4.4c0,0.5,0.1,0.9,0.4,1.2c0.3,0.3,0.6,0.5,1,0.5h0.6C68.6,32.2,68.8,32.3,69,32.5z"/>
	<path class="st3" d="M79.4,25.7c0.1,0.1,0.2,0.3,0.2,0.5c0,0.3-0.1,0.5-0.4,0.7c-0.2,0-0.3,0.1-0.5,0.1c-0.3,0-0.5-0.1-0.7-0.3
		c-0.3-0.3-0.6-0.6-1-0.7s-0.8-0.2-1.2-0.2c-0.9,0-1.7,0.3-2.2,0.9c-0.6,0.6-0.9,1.4-0.9,2.5c0,0.6,0.1,1.2,0.4,1.7s0.6,0.9,1.1,1.2
		s1,0.4,1.7,0.4c0.8,0,1.5-0.2,2-0.6c0.2-0.2,0.5-0.3,0.7-0.3s0.3,0.1,0.5,0.2c0.2,0.2,0.3,0.4,0.3,0.6s-0.1,0.3-0.2,0.5
		c-0.9,0.8-1.9,1.2-3.2,1.2c-0.9,0-1.8-0.2-2.6-0.6c-0.8-0.4-1.3-1-1.8-1.8C71.2,30.9,71,30,71,29.1c0-1,0.2-1.8,0.6-2.6
		c0.4-0.8,1-1.4,1.7-1.8s1.6-0.6,2.5-0.6C77.2,24.1,78.4,24.6,79.4,25.7z"/>
	<path class="st3" d="M89.3,24.7c0.8,0.4,1.3,1,1.8,1.8c0.4,0.8,0.6,1.6,0.6,2.6s-0.2,1.8-0.6,2.6c-0.4,0.8-1,1.3-1.8,1.8
		c-0.8,0.4-1.6,0.6-2.6,0.6s-1.8-0.2-2.6-0.6c-0.8-0.4-1.3-1-1.8-1.8c-0.4-0.8-0.6-1.6-0.6-2.6s0.2-1.8,0.6-2.6
		c0.4-0.8,1-1.3,1.8-1.8c0.8-0.4,1.6-0.6,2.6-0.6C87.7,24.1,88.5,24.3,89.3,24.7z M85.1,26.1c-0.5,0.3-0.9,0.7-1.1,1.2
		c-0.3,0.5-0.4,1.1-0.4,1.7s0.1,1.2,0.4,1.7s0.7,0.9,1.1,1.2c0.5,0.3,1,0.4,1.6,0.4s1.2-0.1,1.6-0.4c0.5-0.3,0.9-0.7,1.1-1.2
		c0.3-0.5,0.4-1.1,0.4-1.7s-0.1-1.2-0.4-1.7s-0.6-0.9-1.1-1.2s-1-0.4-1.6-0.4S85.6,25.8,85.1,26.1z"/>
	<path class="st3" d="M96.4,20.5c0.2,0.2,0.4,0.5,0.4,0.8s-0.1,0.6-0.4,0.8c-0.2,0.2-0.5,0.4-0.8,0.4s-0.6-0.1-0.8-0.4
		c-0.2-0.2-0.4-0.5-0.4-0.8s0.1-0.6,0.4-0.8c0.2-0.2,0.5-0.4,0.8-0.4C95.8,20.2,96.1,20.3,96.4,20.5z M94.9,24.4
		c0.2-0.2,0.4-0.3,0.7-0.3c0.3,0,0.5,0.1,0.7,0.3s0.3,0.4,0.3,0.7v8c0,0.3-0.1,0.5-0.3,0.7S95.8,34,95.5,34s-0.5-0.1-0.7-0.3
		s-0.3-0.4-0.3-0.7v-8C94.6,24.8,94.7,24.6,94.9,24.4z"/>
	<path class="st3" d="M107,24.6c0.7,0.4,1.2,0.9,1.5,1.6c0.4,0.7,0.6,1.5,0.6,2.5v4.4c0,0.3-0.1,0.5-0.3,0.7s-0.4,0.3-0.7,0.3
		c-0.3,0-0.5-0.1-0.7-0.3s-0.3-0.4-0.3-0.7v-4.4c0-1-0.3-1.7-0.8-2.2s-1.2-0.7-2.1-0.7c-0.5,0-1,0.1-1.4,0.3c-0.4,0.2-0.7,0.5-1,0.8
		c-0.2,0.3-0.4,0.7-0.4,1.2v5.1c0,0.3-0.1,0.5-0.3,0.7c-0.2,0.2-0.4,0.3-0.7,0.3c-0.3,0-0.5-0.1-0.7-0.3s-0.3-0.4-0.3-0.7v-8
		c0-0.3,0.1-0.5,0.3-0.7s0.4-0.3,0.7-0.3c0.3,0,0.5,0.1,0.7,0.3c0.2,0.2,0.3,0.4,0.3,0.7v0.2c0.4-0.4,0.8-0.7,1.4-0.9
		c0.5-0.2,1.1-0.3,1.7-0.3C105.6,24.1,106.3,24.2,107,24.6z"/>
</g>
<path class="st4" d="M669.5,328h-88c-5.5,0-10-4.5-10-10v-18c0-5.5,4.5-10,10-10h88c5.5,0,10,4.5,10,10v18
	C679.5,323.5,675,328,669.5,328z"/>
<g class="st5">
	<path class="st0" d="M597.1,306.7c0.7,0.4,1.3,1,1.8,1.8c0.4,0.8,0.7,1.6,0.7,2.5v4c0,0.3-0.1,0.5-0.3,0.7s-0.4,0.3-0.7,0.3
		s-0.5-0.1-0.7-0.3s-0.3-0.4-0.3-0.7v-0.7c-0.4,0.5-0.9,0.9-1.5,1.2c-0.6,0.3-1.2,0.4-1.9,0.4c-0.9,0-1.6-0.2-2.3-0.6
		s-1.3-1-1.7-1.8s-0.6-1.6-0.6-2.5s0.2-1.8,0.6-2.5c0.4-0.8,1-1.4,1.8-1.8s1.6-0.7,2.5-0.7S596.4,306.3,597.1,306.7z M596.2,314
		c0.5-0.3,0.9-0.7,1.1-1.2c0.3-0.5,0.4-1.1,0.4-1.7s-0.1-1.2-0.4-1.7c-0.3-0.5-0.7-0.9-1.1-1.2c-0.5-0.3-1-0.4-1.6-0.4
		s-1.1,0.1-1.6,0.4s-0.9,0.7-1.2,1.2s-0.4,1.1-0.4,1.7s0.1,1.2,0.4,1.7c0.3,0.5,0.7,0.9,1.2,1.2c0.5,0.3,1,0.4,1.6,0.4
		C595.2,314.5,595.7,314.3,596.2,314z"/>
	<path class="st0" d="M602.2,302.2c0.2-0.2,0.4-0.3,0.6-0.3c0.3,0,0.5,0.1,0.6,0.3s0.3,0.4,0.3,0.6v9.8c0,0.4,0.1,0.8,0.3,1.1
		c0.2,0.3,0.4,0.4,0.6,0.4h0.5c0.2,0,0.4,0.1,0.6,0.3c0.1,0.2,0.2,0.4,0.2,0.6c0,0.3-0.1,0.5-0.3,0.6c-0.2,0.2-0.5,0.3-0.9,0.3l0,0
		c-0.5,0-1-0.1-1.4-0.4s-0.7-0.7-1-1.2c-0.2-0.5-0.3-1.1-0.3-1.7v-9.8C601.9,302.6,602,302.4,602.2,302.2z"/>
	<path class="st0" d="M612.4,314.5c0.1,0.2,0.2,0.4,0.2,0.6c0,0.3-0.1,0.5-0.3,0.6s-0.5,0.3-0.8,0.3h-0.3c-0.6,0-1.1-0.2-1.6-0.5
		s-0.9-0.7-1.1-1.3s-0.4-1.1-0.4-1.8V308h-0.8c-0.3,0-0.5-0.1-0.6-0.2c-0.2-0.1-0.2-0.3-0.2-0.5s0.1-0.4,0.2-0.6
		c0.2-0.1,0.4-0.2,0.6-0.2h0.8v-2.6c0-0.3,0.1-0.5,0.3-0.6s0.4-0.3,0.6-0.3c0.3,0,0.5,0.1,0.6,0.3s0.3,0.4,0.3,0.6v2.6h1.5
		c0.3,0,0.5,0.1,0.6,0.2c0.2,0.1,0.2,0.3,0.2,0.6c0,0.2-0.1,0.4-0.2,0.5c-0.2,0.1-0.4,0.2-0.6,0.2h-1.5v4.4c0,0.5,0.1,0.9,0.4,1.2
		c0.3,0.3,0.6,0.5,1,0.5h0.6C612.1,314.2,612.3,314.3,612.4,314.5z"/>
	<path class="st0" d="M622.8,307.7c0.1,0.1,0.2,0.3,0.2,0.5c0,0.3-0.1,0.5-0.4,0.7c-0.1,0.1-0.3,0.1-0.4,0.1c-0.3,0-0.5-0.1-0.7-0.3
		c-0.3-0.3-0.6-0.6-1-0.7s-0.8-0.2-1.2-0.2c-0.9,0-1.7,0.3-2.2,0.9c-0.6,0.6-0.9,1.4-0.9,2.5c0,0.6,0.1,1.2,0.4,1.7
		c0.3,0.5,0.6,0.9,1.1,1.2c0.5,0.3,1,0.4,1.7,0.4c0.8,0,1.5-0.2,2-0.6c0.2-0.2,0.5-0.3,0.7-0.3s0.3,0.1,0.5,0.2
		c0.2,0.2,0.3,0.4,0.3,0.6s-0.1,0.3-0.2,0.5c-0.9,0.8-1.9,1.2-3.2,1.2c-0.9,0-1.8-0.2-2.6-0.6s-1.3-1-1.8-1.8
		c-0.4-0.8-0.6-1.6-0.6-2.5c0-1,0.2-1.8,0.6-2.6c0.4-0.8,1-1.4,1.7-1.8s1.6-0.6,2.5-0.6C620.7,306.1,621.9,306.6,622.8,307.7z"/>
	<path class="st0" d="M632,306.3c0.4,0.2,0.5,0.4,0.5,0.7c0,0.1,0,0.1,0,0.2c-0.1,0.4-0.3,0.6-0.7,0.6c-0.1,0-0.2,0-0.3,0
		c-0.5-0.1-0.9-0.1-1.2-0.1c-0.9,0-1.6,0.2-2.1,0.6s-0.8,0.9-0.8,1.6v5.3c0,0.3-0.1,0.5-0.2,0.7c-0.1,0.2-0.4,0.2-0.7,0.2
		s-0.5-0.1-0.7-0.2c-0.2-0.2-0.2-0.4-0.2-0.7v-8c0-0.3,0.1-0.5,0.2-0.7c0.2-0.2,0.4-0.2,0.7-0.2c0.6,0,0.9,0.3,0.9,0.9v0.3
		c0.4-0.4,0.8-0.8,1.3-1s1.1-0.4,1.7-0.4C631.2,306,631.7,306.1,632,306.3z"/>
	<path class="st0" d="M642.5,306.9c0,0.1,0,0.3-0.1,0.4l-5.5,12.4c-0.1,0.4-0.4,0.6-0.7,0.6c-0.1,0-0.3,0-0.4-0.1
		c-0.4-0.2-0.5-0.4-0.5-0.7c0-0.1,0-0.3,0.1-0.4l1.8-4l-4-7.7c-0.1-0.1-0.1-0.2-0.1-0.4c0-0.2,0-0.3,0.1-0.4s0.2-0.2,0.4-0.3
		c0.1,0,0.2-0.1,0.4-0.1c0.3,0,0.6,0.2,0.8,0.5l3.3,6.6l2.9-6.5c0.2-0.3,0.4-0.5,0.7-0.5c0.2,0,0.3,0,0.4,0.1
		C642.4,306.4,642.5,306.6,642.5,306.9z"/>
	<path class="st0" d="M651.6,306.7c0.8,0.4,1.4,1,1.8,1.8s0.6,1.6,0.6,2.5s-0.2,1.8-0.6,2.5c-0.4,0.8-1,1.4-1.7,1.8
		s-1.5,0.6-2.3,0.6c-0.7,0-1.3-0.1-1.9-0.4c-0.6-0.3-1.1-0.7-1.5-1.2v4.9c0,0.3-0.1,0.5-0.3,0.7s-0.4,0.3-0.7,0.3s-0.5-0.1-0.7-0.3
		s-0.3-0.4-0.3-0.7V311c0-0.9,0.2-1.8,0.7-2.5c0.4-0.8,1-1.4,1.8-1.8s1.6-0.7,2.5-0.7C650,306.1,650.9,306.3,651.6,306.7z
		 M650.7,314c0.5-0.3,0.9-0.7,1.2-1.2s0.4-1.1,0.4-1.7s-0.1-1.2-0.4-1.7c-0.3-0.5-0.7-0.9-1.2-1.2c-0.5-0.3-1-0.4-1.6-0.4
		s-1.1,0.1-1.6,0.4s-0.9,0.7-1.1,1.2c-0.3,0.5-0.4,1.1-0.4,1.7s0.1,1.2,0.4,1.7c0.3,0.5,0.7,0.9,1.1,1.2c0.5,0.3,1,0.4,1.6,0.4
		C649.7,314.5,650.3,314.3,650.7,314z"/>
	<path class="st0" d="M661.6,314.5c0.1,0.2,0.2,0.4,0.2,0.6c0,0.3-0.1,0.5-0.3,0.6s-0.5,0.3-0.8,0.3h-0.3c-0.6,0-1.1-0.2-1.6-0.5
		s-0.9-0.7-1.1-1.3s-0.4-1.1-0.4-1.8V308h-0.8c-0.3,0-0.5-0.1-0.6-0.2c-0.2-0.1-0.2-0.3-0.2-0.5s0.1-0.4,0.2-0.6
		c0.2-0.1,0.4-0.2,0.6-0.2h0.8v-2.6c0-0.3,0.1-0.5,0.3-0.6s0.4-0.3,0.6-0.3c0.3,0,0.5,0.1,0.6,0.3s0.3,0.4,0.3,0.6v2.6h1.5
		c0.3,0,0.5,0.1,0.6,0.2c0.2,0.1,0.2,0.3,0.2,0.6c0,0.2-0.1,0.4-0.2,0.5c-0.2,0.1-0.4,0.2-0.6,0.2H659v4.4c0,0.5,0.1,0.9,0.4,1.2
		c0.3,0.3,0.6,0.5,1,0.5h0.6C661.2,314.2,661.4,314.3,661.6,314.5z"/>
</g>
<path class="st6" d="M669.5,378h-88c-5.5,0-10-4.5-10-10v-18c0-5.5,4.5-10,10-10h88c5.5,0,10,4.5,10,10v18
	C679.5,373.5,675,378,669.5,378z"/>
<g class="st7">
	<path class="st0" d="M591.1,365.2c0,0.6-0.3,0.8-0.8,0.8h-6.1c-0.6,0-0.8-0.3-0.8-0.8c0-0.2,0.1-0.4,0.2-0.6l5.1-6.7H584
		c-0.6,0-0.8-0.3-0.8-0.8c0-0.6,0.3-0.8,0.8-0.8h6.1c0.6,0,0.8,0.3,0.8,0.8c0,0.2-0.1,0.4-0.2,0.6l-5.1,6.7h4.6
		C590.8,364.3,591.1,364.6,591.1,365.2z"/>
	<path class="st0" d="M601.7,361.5c-0.2,0.2-0.4,0.2-0.6,0.2h-6.8c0.1,0.8,0.5,1.5,1.1,2s1.4,0.8,2.3,0.8c0.4,0,0.7-0.1,1.1-0.2
		c0.4-0.1,0.7-0.3,1-0.5c0.2-0.1,0.4-0.2,0.6-0.2c0.2,0,0.4,0.1,0.5,0.2c0.2,0.2,0.3,0.4,0.3,0.6s-0.1,0.4-0.3,0.5
		c-0.4,0.3-0.9,0.6-1.5,0.8c-0.6,0.2-1.2,0.3-1.7,0.3c-1,0-1.9-0.2-2.6-0.6c-0.8-0.4-1.4-1-1.8-1.8c-0.4-0.8-0.7-1.6-0.7-2.6
		s0.2-1.8,0.6-2.6c0.4-0.8,1-1.4,1.7-1.8s1.6-0.6,2.5-0.6s1.7,0.2,2.4,0.6s1.2,1,1.5,1.7c0.4,0.7,0.5,1.6,0.5,2.5
		C601.9,361.2,601.9,361.3,601.7,361.5z M595.3,358.3c-0.5,0.5-0.9,1.1-1,1.9h6c-0.1-0.8-0.4-1.4-0.9-1.9s-1.1-0.7-1.9-0.7
		C596.6,357.6,595.9,357.9,595.3,358.3z"/>
	<path class="st0" d="M604.2,352.2c0.2-0.2,0.4-0.3,0.6-0.3c0.3,0,0.5,0.1,0.6,0.3s0.3,0.4,0.3,0.6v9.8c0,0.4,0.1,0.8,0.3,1.1
		c0.2,0.3,0.4,0.4,0.6,0.4h0.5c0.2,0,0.4,0.1,0.6,0.3c0.1,0.2,0.2,0.4,0.2,0.6c0,0.3-0.1,0.5-0.3,0.6c-0.2,0.2-0.5,0.3-0.9,0.3l0,0
		c-0.5,0-1-0.1-1.4-0.4s-0.7-0.7-1-1.2c-0.2-0.5-0.3-1.1-0.3-1.7v-9.8C603.9,352.6,604,352.4,604.2,352.2z"/>
	<path class="st0" d="M616.1,356.7c0.7,0.4,1.3,1,1.8,1.8c0.4,0.8,0.7,1.6,0.7,2.5v4c0,0.3-0.1,0.5-0.3,0.7s-0.4,0.3-0.7,0.3
		s-0.5-0.1-0.7-0.3s-0.3-0.4-0.3-0.7v-0.7c-0.4,0.5-0.9,0.9-1.5,1.2c-0.6,0.3-1.2,0.4-1.9,0.4c-0.9,0-1.6-0.2-2.3-0.6
		s-1.3-1-1.7-1.8s-0.6-1.6-0.6-2.5s0.2-1.8,0.6-2.5c0.4-0.8,1-1.4,1.8-1.8s1.6-0.7,2.5-0.7S615.4,356.3,616.1,356.7z M615.2,364
		c0.5-0.3,0.9-0.7,1.1-1.2c0.3-0.5,0.4-1.1,0.4-1.7s-0.1-1.2-0.4-1.7c-0.3-0.5-0.7-0.9-1.1-1.2c-0.5-0.3-1-0.4-1.6-0.4
		s-1.1,0.1-1.6,0.4s-0.9,0.7-1.2,1.2s-0.4,1.1-0.4,1.7s0.1,1.2,0.4,1.7c0.3,0.5,0.7,0.9,1.2,1.2c0.5,0.3,1,0.4,1.6,0.4
		C614.2,364.5,614.7,364.3,615.2,364z"/>
	<path class="st0" d="M629.2,357.7c0.1,0.1,0.2,0.3,0.2,0.5c0,0.3-0.1,0.5-0.4,0.7c-0.1,0.1-0.3,0.1-0.4,0.1c-0.3,0-0.5-0.1-0.7-0.3
		c-0.3-0.3-0.6-0.6-1-0.7s-0.8-0.2-1.2-0.2c-0.9,0-1.7,0.3-2.2,0.9c-0.6,0.6-0.9,1.4-0.9,2.5c0,0.6,0.1,1.2,0.4,1.7
		c0.3,0.5,0.6,0.9,1.1,1.2c0.5,0.3,1,0.4,1.7,0.4c0.8,0,1.5-0.2,2-0.6c0.2-0.2,0.5-0.3,0.7-0.3s0.3,0.1,0.5,0.2
		c0.2,0.2,0.3,0.4,0.3,0.6s-0.1,0.3-0.2,0.5c-0.9,0.8-1.9,1.2-3.2,1.2c-0.9,0-1.8-0.2-2.6-0.6s-1.3-1-1.8-1.8
		c-0.4-0.8-0.6-1.6-0.6-2.5c0-1,0.2-1.8,0.6-2.6c0.4-0.8,1-1.4,1.7-1.8s1.6-0.6,2.5-0.6C627.1,356.1,628.3,356.6,629.2,357.7z"/>
	<path class="st0" d="M638.4,356.3c0.4,0.2,0.5,0.4,0.5,0.7c0,0.1,0,0.1,0,0.2c-0.1,0.4-0.3,0.6-0.7,0.6c-0.1,0-0.2,0-0.3,0
		c-0.5-0.1-0.9-0.1-1.2-0.1c-0.9,0-1.6,0.2-2.1,0.6s-0.8,0.9-0.8,1.6v5.3c0,0.3-0.1,0.5-0.2,0.7c-0.2,0.2-0.4,0.2-0.7,0.2
		s-0.5-0.1-0.7-0.2c-0.2-0.2-0.2-0.4-0.2-0.7v-8c0-0.3,0.1-0.5,0.2-0.7c0.2-0.2,0.4-0.2,0.7-0.2c0.6,0,0.9,0.3,0.9,0.9v0.3
		c0.4-0.4,0.8-0.8,1.3-1s1.1-0.4,1.7-0.4C637.6,356,638.1,356.1,638.4,356.3z"/>
	<path class="st0" d="M648.9,356.9c0,0.1,0,0.3-0.1,0.4l-5.5,12.4c-0.1,0.4-0.4,0.6-0.7,0.6c-0.1,0-0.3,0-0.4-0.1
		c-0.4-0.2-0.5-0.4-0.5-0.7c0-0.1,0-0.3,0.1-0.4l1.8-4l-4-7.7c-0.1-0.1-0.1-0.2-0.1-0.4c0-0.2,0-0.3,0.1-0.4s0.2-0.2,0.4-0.3
		c0.1,0,0.2-0.1,0.4-0.1c0.3,0,0.6,0.2,0.8,0.5l3.3,6.6l2.9-6.5c0.2-0.3,0.4-0.5,0.7-0.5c0.2,0,0.3,0,0.4,0.1
		C648.8,356.4,648.9,356.6,648.9,356.9z"/>
	<path class="st0" d="M658,356.7c0.8,0.4,1.4,1,1.8,1.8s0.6,1.6,0.6,2.5s-0.2,1.8-0.6,2.5c-0.4,0.8-1,1.4-1.7,1.8s-1.5,0.6-2.3,0.6
		c-0.7,0-1.3-0.1-1.9-0.4c-0.6-0.3-1.1-0.7-1.5-1.2v4.9c0,0.3-0.1,0.5-0.3,0.7s-0.4,0.3-0.7,0.3s-0.5-0.1-0.7-0.3s-0.3-0.4-0.3-0.7
		V361c0-0.9,0.2-1.8,0.7-2.5c0.4-0.8,1-1.4,1.8-1.8s1.6-0.7,2.5-0.7C656.4,356.1,657.3,356.3,658,356.7z M657.1,364
		c0.5-0.3,0.9-0.7,1.2-1.2s0.4-1.1,0.4-1.7s-0.1-1.2-0.4-1.7c-0.3-0.5-0.7-0.9-1.2-1.2c-0.5-0.3-1-0.4-1.6-0.4s-1.1,0.1-1.6,0.4
		s-0.9,0.7-1.1,1.2c-0.3,0.5-0.4,1.1-0.4,1.7s0.1,1.2,0.4,1.7c0.3,0.5,0.7,0.9,1.1,1.2c0.5,0.3,1,0.4,1.6,0.4
		C656.1,364.5,656.7,364.3,657.1,364z"/>
	<path class="st0" d="M668,364.5c0.1,0.2,0.2,0.4,0.2,0.6c0,0.3-0.1,0.5-0.3,0.6s-0.5,0.3-0.8,0.3h-0.3c-0.6,0-1.1-0.2-1.6-0.5
		s-0.9-0.7-1.1-1.3s-0.4-1.1-0.4-1.8V358h-0.8c-0.3,0-0.5-0.1-0.6-0.2c-0.2-0.1-0.2-0.3-0.2-0.5s0.1-0.4,0.2-0.6
		c0.2-0.1,0.4-0.2,0.6-0.2h0.8v-2.6c0-0.3,0.1-0.5,0.3-0.6s0.4-0.3,0.6-0.3c0.3,0,0.5,0.1,0.6,0.3s0.3,0.4,0.3,0.6v2.6h1.5
		c0.3,0,0.5,0.1,0.6,0.2c0.2,0.1,0.2,0.3,0.2,0.6c0,0.2-0.1,0.4-0.2,0.5c-0.2,0.1-0.4,0.2-0.6,0.2h-1.5v4.4c0,0.5,0.1,0.9,0.4,1.2
		c0.3,0.3,0.6,0.5,1,0.5h0.6C667.6,364.2,667.8,364.3,668,364.5z"/>
</g>
<path class="st0" d="M114,96H41c-5.5,0-10-4.5-10-10V68c0-5.5,4.5-10,10-10h73c5.5,0,10,4.5,10,10v18C124,91.5,119.5,96,114,96z"/>
<g>
	<path class="st3" d="M56.4,74.7c0.1,0.1,0.2,0.3,0.2,0.5c0,0.3-0.1,0.5-0.4,0.7C56.1,76,55.9,76,55.8,76c-0.3,0-0.5-0.1-0.7-0.3
		c-0.3-0.3-0.6-0.6-1-0.7s-0.8-0.2-1.2-0.2c-0.9,0-1.7,0.3-2.2,0.9c-0.6,0.6-0.9,1.4-0.9,2.5c0,0.6,0.1,1.2,0.4,1.7s0.6,0.9,1.1,1.2
		c0.5,0.3,1,0.4,1.7,0.4c0.8,0,1.5-0.2,2-0.6c0.2-0.2,0.5-0.3,0.7-0.3s0.3,0.1,0.5,0.2c0.2,0.2,0.3,0.4,0.3,0.6s-0.1,0.3-0.2,0.5
		c-0.9,0.8-1.9,1.2-3.2,1.2c-0.9,0-1.8-0.2-2.6-0.6s-1.3-1-1.8-1.8C48.2,79.9,48,79,48,78.1c0-1,0.2-1.8,0.6-2.6
		c0.4-0.8,1-1.4,1.7-1.8s1.6-0.6,2.5-0.6C54.3,73.1,55.5,73.6,56.4,74.7z"/>
	<path class="st3" d="M65.6,73.3c0.4,0.2,0.5,0.4,0.5,0.7c0,0.1,0,0.1,0,0.2c-0.1,0.4-0.3,0.6-0.7,0.6c-0.1,0-0.2,0-0.3,0
		c-0.5-0.1-0.9-0.1-1.2-0.1c-0.9,0-1.6,0.2-2.1,0.6S61,76.2,61,76.9v5.3c0,0.3-0.1,0.5-0.2,0.7c-0.1,0.2-0.4,0.2-0.7,0.2
		s-0.5-0.1-0.7-0.2c-0.2-0.2-0.2-0.4-0.2-0.7v-8c0-0.3,0.1-0.5,0.2-0.7c0.2-0.2,0.4-0.2,0.7-0.2c0.6,0,0.9,0.3,0.9,0.9v0.3
		c0.4-0.4,0.8-0.8,1.3-1s1.1-0.4,1.7-0.4C64.8,73,65.3,73.1,65.6,73.3z"/>
	<path class="st3" d="M76.1,73.9c0,0.1,0,0.3-0.1,0.4l-5.5,12.4c-0.1,0.4-0.4,0.6-0.7,0.6c-0.1,0-0.3,0-0.4-0.1
		c-0.4-0.2-0.5-0.4-0.5-0.7c0-0.1,0-0.3,0.1-0.4l1.8-4l-4-7.7c-0.1-0.1-0.1-0.2-0.1-0.4c0-0.2,0-0.3,0.1-0.4s0.2-0.2,0.4-0.3
		c0.1,0,0.2-0.1,0.4-0.1c0.3,0,0.6,0.2,0.8,0.5l3.3,6.6l2.9-6.5c0.2-0.3,0.4-0.5,0.7-0.5c0.2,0,0.3,0,0.4,0.1
		C76,73.4,76.1,73.6,76.1,73.9z"/>
	<path class="st3" d="M85.2,73.7c0.8,0.4,1.4,1,1.8,1.8s0.6,1.6,0.6,2.5s-0.2,1.8-0.6,2.5c-0.4,0.8-1,1.4-1.7,1.8s-1.5,0.6-2.3,0.6
		c-0.7,0-1.3-0.1-1.9-0.4S80,82,79.6,81.4v4.9c0,0.3-0.1,0.5-0.3,0.7c-0.2,0.2-0.4,0.3-0.7,0.3c-0.3,0-0.5-0.1-0.7-0.3
		s-0.3-0.4-0.3-0.7v-8.2c0-0.9,0.2-1.8,0.7-2.5s1-1.4,1.8-1.8c0.7-0.4,1.6-0.7,2.5-0.7C83.6,73.1,84.5,73.3,85.2,73.7z M84.3,81
		c0.5-0.3,0.9-0.7,1.2-1.2c0.3-0.5,0.4-1.1,0.4-1.7s-0.1-1.2-0.4-1.7s-0.7-0.9-1.2-1.2c-0.5-0.3-1-0.4-1.6-0.4s-1.1,0.1-1.6,0.4
		s-0.9,0.7-1.1,1.2c-0.3,0.5-0.4,1.1-0.4,1.7s0.1,1.2,0.4,1.7s0.7,0.9,1.1,1.2c0.5,0.3,1,0.4,1.6,0.4S83.9,81.3,84.3,81z"/>
	<path class="st3" d="M95.2,81.5c0.1,0.2,0.2,0.4,0.2,0.6c0,0.3-0.1,0.5-0.3,0.6c-0.2,0.2-0.5,0.3-0.8,0.3H94
		c-0.6,0-1.1-0.2-1.6-0.5s-0.9-0.7-1.1-1.3c-0.3-0.5-0.4-1.1-0.4-1.8V75H90c-0.3,0-0.5-0.1-0.6-0.2c-0.2-0.1-0.2-0.3-0.2-0.5
		s0.1-0.4,0.2-0.6c0.2-0.1,0.4-0.2,0.6-0.2h0.8v-2.6c0-0.3,0.1-0.5,0.3-0.6c0.2-0.2,0.4-0.3,0.6-0.3c0.3,0,0.5,0.1,0.6,0.3
		c0.2,0.2,0.3,0.4,0.3,0.6v2.6h1.5c0.3,0,0.5,0.1,0.6,0.2c0.2,0.1,0.2,0.3,0.2,0.6c0,0.2-0.1,0.4-0.2,0.5c-0.2,0.1-0.4,0.2-0.6,0.2
		h-1.5v4.4c0,0.5,0.1,0.9,0.4,1.2c0.3,0.3,0.6,0.5,1,0.5h0.6C94.8,81.2,95,81.3,95.2,81.5z"/>
	<path class="st3" d="M104.6,73.7c0.8,0.4,1.3,1,1.8,1.8c0.4,0.8,0.6,1.6,0.6,2.6s-0.2,1.8-0.6,2.6s-1,1.3-1.8,1.8
		c-0.8,0.4-1.6,0.6-2.6,0.6s-1.8-0.2-2.6-0.6c-0.8-0.4-1.3-1-1.8-1.8c-0.4-0.8-0.6-1.6-0.6-2.6s0.2-1.8,0.6-2.6
		c0.4-0.8,1-1.3,1.8-1.8c0.8-0.4,1.6-0.6,2.6-0.6S103.9,73.3,104.6,73.7z M100.5,75.1c-0.5,0.3-0.9,0.7-1.1,1.2
		C99.1,76.8,99,77.4,99,78s0.1,1.2,0.4,1.7s0.7,0.9,1.1,1.2c0.5,0.3,1,0.4,1.6,0.4s1.2-0.1,1.6-0.4c0.5-0.3,0.9-0.7,1.1-1.2
		c0.3-0.5,0.4-1.1,0.4-1.7s-0.1-1.2-0.4-1.7s-0.6-0.9-1.1-1.2s-1-0.4-1.6-0.4S100.9,74.8,100.5,75.1z"/>
</g>
<line class="st1" x1="107" y1="259" x2="572" y2="259"/>
<g>
	<path class="st0" d="M10.9,71.1c0.1-0.1,0.3-0.2,0.6-0.2c0.2,0,0.4,0.1,0.6,0.2c0.2,0.1,0.2,0.3,0.2,0.6v4.5h4.5
		c0.2,0,0.4,0.1,0.6,0.2s0.2,0.3,0.2,0.6s-0.1,0.4-0.2,0.6c-0.1,0.1-0.3,0.2-0.6,0.2h-4.5v4.5c0,0.2-0.1,0.4-0.2,0.6
		C11.9,83,11.7,83,11.5,83s-0.4-0.1-0.6-0.2c-0.1-0.1-0.2-0.3-0.2-0.6v-4.5H6.2c-0.2,0-0.4-0.1-0.6-0.2c-0.1-0.1-0.2-0.3-0.2-0.6
		s0.1-0.4,0.2-0.6s0.3-0.2,0.6-0.2h4.5v-4.5C10.7,71.4,10.8,71.2,10.9,71.1z"/>
</g>
<path class="st0" d="M116.5,148h-78c-5.5,0-10-4.5-10-10v-18c0-5.5,4.5-10,10-10h78c5.5,0,10,4.5,10,10v18
	C126.5,143.5,122,148,116.5,148z"/>
<g>
	<path class="st3" d="M56.5,125.5c0.6,0.3,1.1,0.6,1.5,1c0.2,0.2,0.2,0.4,0.2,0.6s-0.1,0.4-0.3,0.6c-0.1,0.1-0.3,0.1-0.5,0.1
		c-0.3,0-0.6-0.1-0.8-0.3c-0.3-0.3-0.6-0.5-1-0.6c-0.3-0.1-0.7-0.2-1.2-0.2c-0.6,0-1,0.1-1.4,0.3c-0.4,0.2-0.5,0.4-0.5,0.8
		c0,0.2,0.1,0.4,0.2,0.6c0.1,0.2,0.3,0.3,0.7,0.5c0.3,0.1,0.8,0.3,1.5,0.4c1.3,0.3,2.2,0.6,2.8,1.1s0.8,1.1,0.8,1.8
		c0,0.6-0.1,1.1-0.4,1.5c-0.3,0.5-0.7,0.8-1.3,1.1s-1.3,0.4-2.1,0.4s-1.6-0.1-2.3-0.4c-0.7-0.3-1.3-0.6-1.7-1
		c-0.2-0.2-0.2-0.3-0.2-0.6s0.1-0.5,0.4-0.7c0.2-0.2,0.4-0.3,0.6-0.3c0.2,0,0.5,0.1,0.7,0.3c0.2,0.3,0.6,0.5,1,0.7
		c0.5,0.2,0.9,0.3,1.5,0.3c0.7,0,1.2-0.1,1.6-0.3c0.4-0.2,0.6-0.5,0.6-0.9s-0.2-0.7-0.6-0.9c-0.4-0.2-1-0.5-1.9-0.6
		c-2.3-0.4-3.5-1.4-3.5-2.8c0-0.6,0.2-1.1,0.5-1.5s0.8-0.7,1.4-0.9c0.6-0.2,1.2-0.3,1.8-0.3C55.2,125.1,55.8,125.2,56.5,125.5z"/>
	<path class="st3" d="M65.4,133.5c0.1,0.2,0.2,0.4,0.2,0.6c0,0.3-0.1,0.5-0.3,0.6c-0.2,0.2-0.5,0.3-0.8,0.3h-0.3
		c-0.6,0-1.1-0.2-1.6-0.5s-0.9-0.7-1.1-1.3c-0.3-0.5-0.4-1.1-0.4-1.8V127h-0.8c-0.3,0-0.5-0.1-0.6-0.2c-0.2-0.1-0.2-0.3-0.2-0.5
		s0.1-0.4,0.2-0.6c0.2-0.1,0.4-0.2,0.6-0.2h0.8v-2.6c0-0.3,0.1-0.5,0.3-0.6c0.2-0.2,0.4-0.3,0.6-0.3c0.3,0,0.5,0.1,0.6,0.3
		c0.2,0.2,0.3,0.4,0.3,0.6v2.6h1.5c0.3,0,0.5,0.1,0.6,0.2c0.2,0.1,0.2,0.3,0.2,0.6c0,0.2-0.1,0.4-0.2,0.5c-0.2,0.1-0.4,0.2-0.6,0.2
		h-1.5v4.4c0,0.5,0.1,0.9,0.4,1.2c0.3,0.3,0.6,0.5,1,0.5h0.6C65.1,133.2,65.3,133.3,65.4,133.5z"/>
	<path class="st3" d="M74.9,125.7c0.7,0.4,1.3,1,1.8,1.8s0.7,1.6,0.7,2.5v4c0,0.3-0.1,0.5-0.3,0.7s-0.4,0.3-0.7,0.3
		c-0.3,0-0.5-0.1-0.7-0.3s-0.3-0.4-0.3-0.7v-0.7c-0.4,0.5-0.9,0.9-1.5,1.2s-1.2,0.4-1.9,0.4c-0.9,0-1.6-0.2-2.3-0.6
		c-0.7-0.4-1.3-1-1.7-1.8c-0.4-0.8-0.6-1.6-0.6-2.5s0.2-1.8,0.6-2.5c0.4-0.8,1-1.4,1.8-1.8s1.6-0.7,2.5-0.7
		C73.3,125.1,74.1,125.3,74.9,125.7z M74,133c0.5-0.3,0.9-0.7,1.1-1.2c0.3-0.5,0.4-1.1,0.4-1.7c0-0.6-0.1-1.2-0.4-1.7
		s-0.7-0.9-1.1-1.2c-0.5-0.3-1-0.4-1.6-0.4s-1.1,0.1-1.6,0.4s-0.9,0.7-1.2,1.2c-0.3,0.5-0.4,1.1-0.4,1.7c0,0.6,0.1,1.2,0.4,1.7
		s0.7,0.9,1.2,1.2s1,0.4,1.6,0.4S73.5,133.3,74,133z"/>
	<path class="st3" d="M81,120.9c0.3,0,0.5,0.1,0.7,0.3s0.3,0.4,0.3,0.7v4.9c0.4-0.5,0.9-0.9,1.5-1.2s1.2-0.4,1.9-0.4
		c0.9,0,1.6,0.2,2.3,0.6c0.7,0.4,1.3,1,1.7,1.8c0.4,0.8,0.6,1.6,0.6,2.5s-0.2,1.8-0.6,2.5c-0.4,0.8-1,1.4-1.8,1.8
		c-0.8,0.4-1.6,0.7-2.5,0.7s-1.8-0.2-2.5-0.7c-0.8-0.4-1.3-1-1.8-1.8s-0.7-1.6-0.7-2.5v-8.2c0-0.3,0.1-0.5,0.3-0.7
		C80.5,121,80.7,120.9,81,120.9z M85,133.5c0.6,0,1.1-0.1,1.6-0.4c0.5-0.3,0.9-0.7,1.2-1.2c0.3-0.5,0.4-1.1,0.4-1.7
		c0-0.6-0.1-1.2-0.4-1.7s-0.7-0.9-1.2-1.2c-0.5-0.3-1-0.4-1.6-0.4s-1.1,0.1-1.6,0.4s-0.9,0.7-1.1,1.2c-0.3,0.5-0.4,1.1-0.4,1.7
		c0,0.6,0.1,1.2,0.4,1.7s0.7,0.9,1.1,1.2C83.9,133.3,84.4,133.5,85,133.5z"/>
	<path class="st3" d="M92.6,121.2c0.2-0.2,0.4-0.3,0.6-0.3c0.3,0,0.5,0.1,0.6,0.3c0.2,0.2,0.3,0.4,0.3,0.6v9.8
		c0,0.4,0.1,0.8,0.3,1.1c0.2,0.3,0.4,0.4,0.6,0.4h0.5c0.2,0,0.4,0.1,0.6,0.3c0.1,0.2,0.2,0.4,0.2,0.6c0,0.3-0.1,0.5-0.3,0.6
		s-0.5,0.3-0.9,0.3l0,0c-0.5,0-1-0.1-1.4-0.4s-0.7-0.7-1-1.2c-0.2-0.5-0.3-1.1-0.3-1.7v-9.8C92.3,121.6,92.4,121.4,92.6,121.2z"/>
	<path class="st3" d="M106.2,130.5c-0.2,0.2-0.4,0.2-0.6,0.2h-6.8c0.1,0.8,0.5,1.5,1.1,2s1.4,0.8,2.3,0.8c0.4,0,0.7-0.1,1.1-0.2
		c0.4-0.1,0.7-0.3,1-0.5c0.2-0.1,0.4-0.2,0.6-0.2s0.4,0.1,0.5,0.2c0.2,0.2,0.3,0.4,0.3,0.6c0,0.2-0.1,0.4-0.3,0.5
		c-0.4,0.3-0.9,0.6-1.5,0.8s-1.2,0.3-1.7,0.3c-1,0-1.9-0.2-2.6-0.6c-0.8-0.4-1.4-1-1.8-1.8s-0.7-1.6-0.7-2.6s0.2-1.8,0.6-2.6
		c0.4-0.8,1-1.4,1.7-1.8s1.6-0.6,2.5-0.6s1.7,0.2,2.4,0.6c0.7,0.4,1.2,1,1.5,1.7c0.4,0.7,0.5,1.6,0.5,2.5
		C106.4,130.2,106.3,130.3,106.2,130.5z M99.8,127.3c-0.5,0.5-0.9,1.1-1,1.9h6c-0.1-0.8-0.4-1.4-0.9-1.9s-1.1-0.7-1.9-0.7
		C101,126.6,100.3,126.9,99.8,127.3z"/>
</g>
<g>
	<path class="st0" d="M10.9,123.1c0.1-0.1,0.3-0.2,0.6-0.2c0.2,0,0.4,0.1,0.6,0.2c0.2,0.1,0.2,0.3,0.2,0.6v4.5h4.5
		c0.2,0,0.4,0.1,0.6,0.2s0.2,0.3,0.2,0.6s-0.1,0.4-0.2,0.6c-0.1,0.1-0.3,0.2-0.6,0.2h-4.5v4.5c0,0.2-0.1,0.4-0.2,0.6
		c-0.2,0.1-0.3,0.2-0.6,0.2c-0.2,0-0.4-0.1-0.6-0.2c-0.1-0.1-0.2-0.3-0.2-0.6v-4.5H6.2c-0.2,0-0.4-0.1-0.6-0.2
		c-0.1-0.1-0.2-0.3-0.2-0.6s0.1-0.4,0.2-0.6s0.3-0.2,0.6-0.2h4.5v-4.5C10.7,123.4,10.8,123.2,10.9,123.1z"/>
</g>
<path class="st8" d="M104.5,198h-54c-5.5,0-10-4.5-10-10v-18c0-5.5,4.5-10,10-10h54c5.5,0,10,4.5,10,10v18
	C114.5,193.5,110,198,104.5,198z"/>
<g>
	<path class="st3" d="M66.7,177.7c0.1,0.1,0.2,0.3,0.2,0.5c0,0.3-0.1,0.5-0.4,0.7c-0.1,0.1-0.3,0.1-0.4,0.1c-0.3,0-0.5-0.1-0.7-0.3
		c-0.3-0.3-0.6-0.6-1-0.7c-0.4-0.1-0.8-0.2-1.2-0.2c-0.9,0-1.7,0.3-2.2,0.9c-0.6,0.6-0.9,1.4-0.9,2.5c0,0.6,0.1,1.2,0.4,1.7
		s0.6,0.9,1.1,1.2s1,0.4,1.7,0.4c0.8,0,1.5-0.2,2-0.6c0.2-0.2,0.5-0.3,0.7-0.3s0.3,0.1,0.5,0.2c0.2,0.2,0.3,0.4,0.3,0.6
		c0,0.2-0.1,0.3-0.2,0.5c-0.9,0.8-1.9,1.2-3.2,1.2c-0.9,0-1.8-0.2-2.6-0.6c-0.8-0.4-1.3-1-1.8-1.8c-0.4-0.8-0.6-1.6-0.6-2.5
		c0-1,0.2-1.8,0.6-2.6c0.4-0.8,1-1.4,1.7-1.8c0.7-0.4,1.6-0.6,2.5-0.6C64.6,176.1,65.8,176.6,66.7,177.7z"/>
	<path class="st3" d="M76.6,176.7c0.8,0.4,1.3,1,1.8,1.8c0.4,0.8,0.6,1.6,0.6,2.6s-0.2,1.8-0.6,2.6s-1,1.3-1.8,1.8
		c-0.8,0.4-1.6,0.6-2.6,0.6s-1.8-0.2-2.6-0.6c-0.8-0.4-1.3-1-1.8-1.8c-0.4-0.8-0.6-1.6-0.6-2.6s0.2-1.8,0.6-2.6s1-1.3,1.8-1.8
		c0.8-0.4,1.6-0.6,2.6-0.6C75,176.1,75.9,176.3,76.6,176.7z M72.4,178.1c-0.5,0.3-0.9,0.7-1.1,1.2c-0.3,0.5-0.4,1.1-0.4,1.7
		c0,0.6,0.1,1.2,0.4,1.7s0.7,0.9,1.1,1.2c0.5,0.3,1,0.4,1.6,0.4s1.2-0.1,1.6-0.4c0.5-0.3,0.9-0.7,1.1-1.2c0.3-0.5,0.4-1.1,0.4-1.7
		c0-0.6-0.1-1.2-0.4-1.7s-0.6-0.9-1.1-1.2s-1-0.4-1.6-0.4S72.9,177.8,72.4,178.1z"/>
	<path class="st3" d="M83.7,172.5c0.2,0.2,0.4,0.5,0.4,0.8s-0.1,0.6-0.4,0.8c-0.2,0.2-0.5,0.4-0.8,0.4s-0.6-0.1-0.8-0.4
		c-0.2-0.2-0.4-0.5-0.4-0.8s0.1-0.6,0.4-0.8c0.2-0.2,0.5-0.4,0.8-0.4C83.2,172.2,83.5,172.3,83.7,172.5z M82.2,176.4
		c0.2-0.2,0.4-0.3,0.7-0.3c0.3,0,0.5,0.1,0.7,0.3s0.3,0.4,0.3,0.7v8c0,0.3-0.1,0.5-0.3,0.7s-0.4,0.3-0.7,0.3c-0.3,0-0.5-0.1-0.7-0.3
		s-0.3-0.4-0.3-0.7v-8C82,176.8,82,176.6,82.2,176.4z"/>
	<path class="st3" d="M94.3,176.6c0.7,0.4,1.2,0.9,1.5,1.6c0.4,0.7,0.6,1.5,0.6,2.5v4.4c0,0.3-0.1,0.5-0.3,0.7s-0.4,0.3-0.7,0.3
		c-0.3,0-0.5-0.1-0.7-0.3s-0.3-0.4-0.3-0.7v-4.4c0-1-0.3-1.7-0.8-2.2s-1.2-0.7-2.1-0.7c-0.5,0-1,0.1-1.4,0.3s-0.7,0.5-1,0.8
		c-0.2,0.3-0.4,0.7-0.4,1.2v5.1c0,0.3-0.1,0.5-0.3,0.7c-0.2,0.2-0.4,0.3-0.7,0.3c-0.3,0-0.5-0.1-0.7-0.3s-0.3-0.4-0.3-0.7v-8
		c0-0.3,0.1-0.5,0.3-0.7s0.4-0.3,0.7-0.3c0.3,0,0.5,0.1,0.7,0.3s0.3,0.4,0.3,0.7v0.2c0.4-0.4,0.8-0.7,1.4-0.9
		c0.5-0.2,1.1-0.3,1.7-0.3C92.9,176.1,93.7,176.2,94.3,176.6z"/>
</g>
<g>
	<path class="st8" d="M15.2,178.6c0.2,0.2,0.2,0.3,0.2,0.6s-0.1,0.4-0.2,0.6c-0.2,0.1-0.3,0.2-0.6,0.2H8.3c-0.2,0-0.4-0.1-0.6-0.2
		c-0.1-0.1-0.2-0.3-0.2-0.6s0.1-0.4,0.2-0.6s0.3-0.2,0.6-0.2h6.4C14.8,178.3,15,178.4,15.2,178.6z"/>
</g>
<circle class="st2" cx="78" cy="259" r="29"/>
<circle class="st2" cx="162" cy="259" r="29"/>
<circle class="st2" cx="248" cy="259" r="29"/>
<circle class="st2" cx="332" cy="259" r="29"/>
<circle class="st2" cx="419" cy="259" r="29"/>
<circle class="st2" cx="506" cy="259" r="29"/>
<g class="st9">
	<path class="st0" d="M601.8,261.5c-0.2,0.2-0.4,0.2-0.6,0.2h-6.8c0.1,0.8,0.5,1.5,1.1,2s1.4,0.8,2.3,0.8c0.4,0,0.7-0.1,1.1-0.2
		s0.7-0.3,1-0.5c0.2-0.1,0.4-0.2,0.6-0.2c0.2,0,0.4,0.1,0.5,0.2c0.2,0.2,0.3,0.4,0.3,0.6c0,0.2-0.1,0.4-0.3,0.5
		c-0.4,0.3-0.9,0.6-1.5,0.8c-0.6,0.2-1.2,0.3-1.7,0.3c-1,0-1.9-0.2-2.6-0.6c-0.8-0.4-1.4-1-1.8-1.8c-0.4-0.8-0.7-1.6-0.7-2.6
		s0.2-1.8,0.6-2.6c0.4-0.8,1-1.4,1.7-1.8c0.7-0.4,1.6-0.6,2.5-0.6c0.9,0,1.7,0.2,2.4,0.6s1.2,1,1.5,1.7c0.4,0.7,0.5,1.6,0.5,2.5
		C602.1,261.2,602,261.3,601.8,261.5z M595.5,258.3c-0.5,0.5-0.9,1.1-1,1.9h6c-0.1-0.8-0.4-1.4-0.9-1.9c-0.5-0.5-1.1-0.7-1.9-0.7
		C596.7,257.6,596,257.9,595.5,258.3z"/>
	<path class="st0" d="M611.6,265.2c0,0.2-0.1,0.4-0.2,0.5c-0.2,0.1-0.3,0.2-0.6,0.2c-0.3,0-0.5-0.1-0.6-0.3l-2.9-3.4l-2.7,3.4
		c-0.2,0.2-0.4,0.3-0.6,0.3c-0.2,0-0.4-0.1-0.6-0.2c-0.1-0.1-0.2-0.3-0.2-0.5c0-0.2,0.1-0.5,0.3-0.7l2.8-3.5l-3-3.5
		c-0.2-0.2-0.3-0.4-0.3-0.7c0-0.2,0.1-0.4,0.2-0.5c0.1-0.1,0.3-0.2,0.6-0.2c0.3,0,0.5,0.1,0.7,0.3l3,3.5l2.6-3.5
		c0.2-0.2,0.4-0.3,0.7-0.3c0.2,0,0.4,0.1,0.6,0.2c0.1,0.2,0.2,0.3,0.2,0.5c0,0.3-0.1,0.5-0.3,0.7l-2.7,3.5l2.9,3.4
		C611.5,264.8,611.6,265,611.6,265.2z"/>
	<path class="st0" d="M621.8,256.6c0.1,0.1,0.1,0.3,0.1,0.4c0,0.1,0,0.2-0.1,0.3l-3.8,8c-0.2,0.4-0.5,0.6-0.8,0.6
		c-0.2,0-0.4,0-0.5-0.1c-0.1-0.1-0.3-0.2-0.4-0.5l-3.8-8c0-0.1-0.1-0.2-0.1-0.3c0-0.3,0.2-0.6,0.5-0.7c0.1-0.1,0.2-0.1,0.4-0.1
		c0.1,0,0.3,0,0.4,0.1c0.1,0.1,0.2,0.2,0.3,0.3l3.1,6.8l3.1-6.8c0.1-0.1,0.2-0.3,0.3-0.3c0.1-0.1,0.3-0.1,0.4-0.1
		c0.2,0,0.3,0,0.4,0.1C621.6,256.4,621.8,256.5,621.8,256.6z"/>
	<path class="st0" d="M630.4,256.7c0.8,0.4,1.3,1,1.8,1.8c0.4,0.8,0.7,1.6,0.7,2.5v4c0,0.3-0.1,0.5-0.3,0.7s-0.4,0.3-0.7,0.3
		c-0.3,0-0.5-0.1-0.7-0.3c-0.2-0.2-0.3-0.4-0.3-0.7v-0.7c-0.4,0.5-0.9,0.9-1.5,1.2c-0.6,0.3-1.2,0.4-1.9,0.4c-0.9,0-1.6-0.2-2.3-0.6
		c-0.7-0.4-1.3-1-1.7-1.8c-0.4-0.8-0.6-1.6-0.6-2.5c0-0.9,0.2-1.8,0.6-2.5s1-1.4,1.8-1.8c0.8-0.4,1.6-0.7,2.5-0.7
		C628.8,256.1,629.6,256.3,630.4,256.7z M629.5,264c0.5-0.3,0.9-0.7,1.1-1.2c0.3-0.5,0.4-1.1,0.4-1.7c0-0.6-0.1-1.2-0.4-1.7
		c-0.3-0.5-0.7-0.9-1.1-1.2c-0.5-0.3-1-0.4-1.6-0.4c-0.6,0-1.1,0.1-1.6,0.4c-0.5,0.3-0.9,0.7-1.2,1.2c-0.3,0.5-0.4,1.1-0.4,1.7
		c0,0.6,0.1,1.2,0.4,1.7c0.3,0.5,0.7,0.9,1.2,1.2c0.5,0.3,1,0.4,1.6,0.4C628.5,264.5,629,264.3,629.5,264z"/>
	<path class="st0" d="M644.3,256.4c0.2,0.2,0.3,0.4,0.3,0.7v8c0,0.3-0.1,0.5-0.3,0.7s-0.4,0.3-0.7,0.3c-0.3,0-0.5-0.1-0.7-0.3
		s-0.3-0.4-0.3-0.7v-0.2c-0.4,0.4-0.8,0.7-1.4,0.9s-1.1,0.3-1.7,0.3c-0.8,0-1.6-0.2-2.2-0.5c-0.7-0.4-1.2-0.9-1.5-1.6
		c-0.4-0.7-0.6-1.5-0.6-2.5v-4.4c0-0.3,0.1-0.5,0.3-0.7c0.2-0.2,0.4-0.3,0.7-0.3c0.3,0,0.5,0.1,0.7,0.3s0.3,0.4,0.3,0.7v4.4
		c0,1,0.3,1.7,0.8,2.2c0.5,0.5,1.2,0.7,2.1,0.7c0.5,0,1-0.1,1.4-0.3s0.7-0.5,1-0.8c0.2-0.3,0.4-0.7,0.4-1.2v-5.1
		c0-0.3,0.1-0.5,0.3-0.7c0.2-0.2,0.4-0.3,0.7-0.3C644,256.1,644.2,256.2,644.3,256.4z"/>
	<path class="st0" d="M647.7,252.2c0.2-0.2,0.4-0.3,0.6-0.3c0.3,0,0.5,0.1,0.6,0.3s0.3,0.4,0.3,0.6v9.8c0,0.4,0.1,0.8,0.3,1.1
		c0.2,0.3,0.4,0.4,0.6,0.4h0.5c0.2,0,0.4,0.1,0.6,0.3c0.1,0.2,0.2,0.4,0.2,0.6c0,0.3-0.1,0.5-0.3,0.6c-0.2,0.2-0.5,0.3-0.9,0.3h0
		c-0.5,0-1-0.1-1.4-0.4s-0.7-0.7-1-1.2c-0.2-0.5-0.3-1.1-0.3-1.7v-9.8C647.5,252.6,647.6,252.4,647.7,252.2z"/>
	<path class="st0" d="M658,264.5c0.1,0.2,0.2,0.4,0.2,0.6c0,0.3-0.1,0.5-0.3,0.6s-0.5,0.3-0.8,0.3h-0.3c-0.6,0-1.1-0.2-1.6-0.5
		c-0.5-0.3-0.9-0.7-1.1-1.3s-0.4-1.1-0.4-1.8v-4.4h-0.8c-0.3,0-0.5-0.1-0.6-0.2c-0.2-0.1-0.2-0.3-0.2-0.5c0-0.2,0.1-0.4,0.2-0.6
		c0.2-0.1,0.4-0.2,0.6-0.2h0.8v-2.6c0-0.3,0.1-0.5,0.3-0.6s0.4-0.3,0.6-0.3c0.3,0,0.5,0.1,0.6,0.3s0.3,0.4,0.3,0.6v2.6h1.5
		c0.3,0,0.5,0.1,0.6,0.2c0.2,0.1,0.2,0.3,0.2,0.6c0,0.2-0.1,0.4-0.2,0.5c-0.2,0.1-0.4,0.2-0.6,0.2h-1.5v4.4c0,0.5,0.1,0.9,0.4,1.2
		c0.3,0.3,0.6,0.5,1,0.5h0.6C657.6,264.2,657.8,264.3,658,264.5z"/>
</g>
</svg>
