<?xml version="1.0" encoding="utf-8"?>
<!-- Generator: Adobe Illustrator 21.0.0, SVG Export Plug-In . SVG Version: 6.00 Build 0)  -->
<svg version="1.1" id="Layer_1" xmlns="http://www.w3.org/2000/svg" xmlns:xlink="http://www.w3.org/1999/xlink" x="0px" y="0px"
	 viewBox="0 0 482 264" enable-background="new 0 0 482 264" xml:space="preserve">
<g>
	<g>
		<path fill="#FFFFFF" d="M54.4,118.7V43h35.9c5.7,0,10.7,0.8,14.9,2.3c4.1,1.5,7.3,3.7,9.5,6.4s3.3,5.9,3.3,9.6
			c0,3.8-1.1,7-3.3,9.9c-2.2,2.8-5.3,4.7-9.2,5.8l0.1,2.9c4.7,0.9,8.3,3,11,6.3s4,7.4,4,12.1c0,4.1-1.1,7.7-3.4,10.7
			c-2.3,3.1-5.6,5.5-9.9,7.1c-4.4,1.7-9.6,2.5-15.5,2.5L54.4,118.7L54.4,118.7z M72,105.7h17.2c3.9,0,7.1-0.9,9.4-2.5
			c2.5-1.8,3.8-4.3,3.8-7.5c0-3-1.3-5.4-3.8-7.1c-2.2-1.6-5.2-2.4-8.9-2.4c-0.2,0-0.4,0-0.5,0H72V105.7z M72,74.2h17.2
			c3.2,0,5.8-0.8,7.7-2.4c2-1.7,3-4,3-6.9s-1-5.1-3-6.7c-1.8-1.5-4.3-2.2-7.2-2.2c-0.2,0-0.3,0-0.5,0L72,56V74.2z"/>
		<path fill="#FFFFFF" d="M90.3,44.4c5.5,0,10.4,0.8,14.4,2.2c3.8,1.4,6.8,3.4,8.9,6c2,2.5,2.9,5.3,2.9,8.7c0,3.5-1,6.4-3,8.9
			c-2,2.6-4.8,4.3-8.4,5.3l0.2,5.8c4.3,0.8,7.6,2.7,10.1,5.8s3.7,6.7,3.7,11.2c0,3.8-1,7-3.1,9.8c-2.1,2.9-5.2,5.1-9.2,6.6
			c-4.2,1.6-9.2,2.4-15,2.4H55.9V44.4H90.3 M89.2,54.5H73.5h-3v3v15.3v3h3h15.7c3.6,0,6.5-0.9,8.7-2.8c2.3-1.9,3.5-4.7,3.5-8.1
			c0-3.3-1.2-6-3.6-7.9c-2.1-1.7-4.8-2.5-8.2-2.5C89.5,54.5,89.3,54.5,89.2,54.5 M89.2,84.7H73.5h-3v3v16.5v3h3h15.7
			c4.2,0,7.7-0.9,10.3-2.8c2.9-2.1,4.4-5.1,4.4-8.7c0-3.4-1.5-6.3-4.4-8.4c-2.5-1.7-5.8-2.6-9.7-2.6C89.5,84.7,89.3,84.7,89.2,84.7
			 M90.3,41.4H52.9v78.7h38.9c6.1,0,11.5-0.9,16.1-2.6c4.6-1.8,8.1-4.3,10.6-7.6s3.7-7.2,3.7-11.6c0-5.1-1.4-9.4-4.3-13
			s-6.8-5.9-11.9-6.9c4.2-1.1,7.5-3.2,9.9-6.3s3.7-6.7,3.7-10.8c0-4-1.2-7.6-3.6-10.6s-5.8-5.3-10.2-6.9
			C101.4,42.2,96.2,41.4,90.3,41.4L90.3,41.4z M73.5,72.7V57.4h15.7c0.2,0,0.3,0,0.4,0c2.6,0,4.7,0.6,6.3,1.9
			c1.6,1.3,2.5,3.2,2.5,5.6c0,2.5-0.8,4.4-2.5,5.8c-1.6,1.4-3.9,2.1-6.7,2.1H73.5V72.7z M73.5,104.2V87.7h15.7c0.2,0,0.3,0,0.5,0
			c3.4,0,6,0.7,8,2.1c2.1,1.5,3.1,3.4,3.1,5.9c0,2.7-1,4.8-3.1,6.3s-4.9,2.2-8.5,2.2H73.5L73.5,104.2z"/>
	</g>
	<g>
		<path fill="#FFFFFF" d="M181.5,118.7L170,96.9h-17.7v21.8h-17.6V43h33.9c10,0,17.8,2.3,23.2,6.9s8.1,10.9,8.1,19.2
			c0,5.6-1.1,10.5-3.4,14.6c-2.2,4-5.5,7.2-9.8,9.5l-1.4,0.8l15.8,24.8h-19.6V118.7z M152.4,83.5h16.4c4.6,0,8.2-1.2,10.7-3.5
			c2.6-2.4,3.9-5.8,3.9-10.2c0-4.2-1.3-7.6-3.9-9.9c-2.6-2.3-6.2-3.5-10.7-3.5h-16.4V83.5z"/>
		<path fill="#FFFFFF" d="M168.7,44.4c9.6,0,17.1,2.2,22.3,6.5c5.1,4.3,7.5,10.2,7.5,18.1c0,5.4-1.1,10-3.2,13.9
			c-2.1,3.8-5.1,6.7-9.2,8.9l-2.9,1.5l1.8,2.8l13.5,21.1h-16L171.8,97l-0.8-1.6h-1.8h-0.4H154h-3v3v18.8h-14.6V44.5h32.3 M150.9,85
			h3h14.9c4.9,0,8.9-1.3,11.7-3.9c2.9-2.7,4.4-6.5,4.4-11.3c0-4.7-1.5-8.4-4.4-11c-2.8-2.6-6.8-3.9-11.7-3.9h-14.9h-3v3V82V85
			 M168.7,41.4h-35.4v78.7h20.6V98.3h14.8h0.4l11.5,21.8h23.3l-16.4-25.7c4.6-2.4,8-5.7,10.4-10.1c2.4-4.3,3.6-9.4,3.6-15.3
			c0-8.8-2.9-15.6-8.6-20.4C187.2,43.8,179.1,41.4,168.7,41.4L168.7,41.4z M153.9,82V57.8h14.9c4.2,0,7.4,1,9.7,3.1s3.4,5,3.4,8.8
			c0,4-1.1,7-3.4,9.1c-2.3,2.1-5.5,3.1-9.7,3.1L153.9,82L153.9,82z"/>
	</g>
	<g>
		<path fill="#FFFFFF" d="M273.5,118.7l-5.4-13.9H232l-5.5,13.9h-17.8L241.2,43h19.1l31.8,75.7H273.5z M237.1,92h26.2l-13-33.7
			L237.1,92z"/>
		<path fill="#FFFFFF" d="M259.4,44.4l30.5,72.7h-15.3l-4.7-12l-0.7-1.9h-2.1h-34h-2l-0.7,1.9l-4.8,12H211l31.2-72.7H259.4
			 M234.9,93.5h4.4h21.8h4.4l-1.6-4.1l-10.8-28.1l-2.8-7.2l-2.8,7.2l-11,28.1L234.9,93.5 M261.4,41.4h-21.1l-33.8,78.7h21.1
			l5.5-13.9h34l5.4,13.9h21.9L261.4,41.4L261.4,41.4z M239.3,90.5l11-28.1l10.8,28.1H239.3L239.3,90.5z"/>
	</g>
	<g>
		<polygon fill="#FFFFFF" points="357.2,118.7 319.2,68.6 319.2,118.7 303,118.7 303,42.9 318.8,42.9 356.9,93.3 356.8,42.9 
			372.9,42.9 372.9,118.7 		"/>
		<path fill="#FFFFFF" d="M371.4,44.4v72.7h-13.5l-34.8-45.9l-5.4-7.1V73v44.1h-13.2V44.4h13.6L353,90.6l5.4,7.2v-9l-0.1-44.4
			L371.4,44.4 M374.4,41.4h-19.1l0.1,47.4l-35.8-47.4h-18.1v78.7h19.2V73l35.7,47.1h18L374.4,41.4L374.4,41.4z"/>
	</g>
	<g>
		<path fill="#FFFFFF" d="M391.3,118.7V43h32.4c8,0,15.1,1.6,21.2,4.8c6,3.1,10.8,7.6,14.2,13.3c3.4,5.7,5.1,12.3,5.1,19.7
			s-1.7,14.1-5.1,19.8s-8.3,10.2-14.4,13.4c-6.2,3.2-13.5,4.8-21.6,4.8h-31.8V118.7z M408.9,105h15.4c4.2,0,8-1,11.3-3
			s5.9-4.9,7.8-8.6c1.8-3.6,2.7-7.8,2.7-12.5s-1-9-2.9-12.6c-2-3.7-4.7-6.6-8.1-8.6s-7.4-3.1-11.8-3.1h-14.4V105z"/>
		<path fill="#FFFFFF" d="M423.7,44.4c7.7,0,14.6,1.5,20.5,4.6c5.8,3,10.4,7.3,13.6,12.7c3.2,5.5,4.9,11.8,4.9,19
			c0,7.1-1.7,13.5-4.9,19c-3.2,5.5-7.9,9.8-13.8,12.8c-6,3.1-13.1,4.6-20.9,4.6H393V44.4L423.7,44.4 M407.4,106.5h3h13.9
			c4.5,0,8.6-1.1,12.1-3.2c3.5-2.2,6.3-5.3,8.3-9.2c1.9-3.8,2.9-8.3,2.9-13.1c0-5-1-9.4-3.1-13.3c-2.1-3.9-5-7-8.7-9.2
			s-7.9-3.3-12.5-3.3h-12.9h-3v3v45.4L407.4,106.5 M423.7,41.4h-33.9v78.7h33.1c8.4,0,15.8-1.6,22.3-4.9c6.5-3.3,11.5-7.9,15.1-13.9
			s5.3-12.8,5.3-20.6c0-7.7-1.8-14.5-5.3-20.5s-8.4-10.6-14.8-13.9C439.2,43.1,432,41.4,423.7,41.4L423.7,41.4z M410.4,103.5V58.1
			h12.9c4.1,0,7.8,1,11,2.9s5.7,4.6,7.6,8c1.8,3.4,2.8,7.4,2.8,11.9c0,4.4-0.9,8.4-2.6,11.8c-1.7,3.4-4.1,6.1-7.2,8
			s-6.6,2.8-10.6,2.8H410.4L410.4,103.5z"/>
	</g>
</g>
<g>
	<line fill="none" stroke="#292D32" stroke-width="3.5" x1="383" y1="72" x2="425.9" y2="72"/>
	<line fill="none" stroke="#292D32" stroke-width="3.5" x1="383" y1="80.9" x2="425.9" y2="80.9"/>
	<line fill="none" stroke="#292D32" stroke-width="3.5" x1="383" y1="89.9" x2="425.9" y2="89.9"/>
</g>
<line fill="none" stroke="#292D32" stroke-width="3.5" stroke-dasharray="4" x1="53.5" y1="9" x2="53.5" y2="155"/>
<path fill="none" stroke="#292D32" stroke-width="3.5" stroke-dasharray="4" d="M16,42h82c0,0,16.5,2.5,20.5,12.5s-2,23-12,24"/>
<g>
	<polyline fill="none" stroke="#292D32" stroke-width="3.5" points="242.5,89.5 242.5,87.9 250.3,67.8 258.1,87.9 258.1,89.5 	"/>
	<path fill="#292D32" d="M243.9,142.4V91.5h12.7v50.9h-11.7 M240.6,145.9H260V88h-19.4V145.9L240.6,145.9z"/>
	<line fill="none" stroke="#292D32" stroke-width="3.5" x1="250.3" y1="144.4" x2="250.3" y2="91.6"/>
	<path fill="none" stroke="#292D32" stroke-width="3.5" d="M242.4,145.2v6.4c0,0.8,0.8,1.4,1.7,1.4h12.3c1,0,1.7-0.6,1.7-1.4v-6.4"
		/>
</g>
<g>
	<g>
		<path fill="none" stroke="#292D32" stroke-width="3.5" d="M178.7,97c3.3-0.6,6.4-1.8,9.2-3.5l7.1,6l7.1-7.1l-5.8-6.9
			c1.8-2.7,3.2-5.7,4-9l9.2-0.8V65.6l-9-0.7c-0.6-3.3-1.8-6.4-3.5-9.2l6-7.1l-7.1-7.1l-6.9,5.8c-2.7-1.8-5.7-3.2-9-4"/>
		<path fill="none" stroke="#292D32" stroke-width="3.5" d="M173.5,50.7c10.7,0,19.3,8.7,19.3,19.3"/>
		<path fill="none" stroke="#292D32" stroke-width="3.5" d="M172.5,58.9c6.2,0,11.2,5,11.2,11.2s-5,11.2-11.2,11.2"/>
	</g>
</g>
<g>
	<g>
		<polyline fill="none" stroke="#292D32" stroke-width="3" points="302.1,43 302.1,121 320.5,121 		"/>
		<line fill="none" stroke="#292D32" stroke-width="3" x1="302.1" y1="111.1" x2="312" y2="111.1"/>
		<line fill="none" stroke="#292D32" stroke-width="3" x1="302.1" y1="101.3" x2="307.4" y2="101.3"/>
		<line fill="none" stroke="#292D32" stroke-width="3" x1="302.1" y1="91.4" x2="312" y2="91.4"/>
		<line fill="none" stroke="#292D32" stroke-width="3" x1="302.1" y1="81.5" x2="307.4" y2="81.5"/>
		<line fill="none" stroke="#292D32" stroke-width="3" x1="302.1" y1="71.7" x2="312" y2="71.7"/>
		<line fill="none" stroke="#292D32" stroke-width="3" x1="302.1" y1="61.8" x2="307.4" y2="61.8"/>
		<line fill="none" stroke="#292D32" stroke-width="3" x1="302.1" y1="51.9" x2="312" y2="51.9"/>
		<line fill="none" stroke="#292D32" stroke-width="3" x1="301" y1="42" x2="307.4" y2="42"/>
	</g>
</g>
<g>
	<line fill="none" stroke="#292D32" stroke-width="3.5" stroke-linejoin="bevel" x1="122.4" y1="112.3" x2="128.1" y2="112.3"/>
	<line fill="none" stroke="#292D32" stroke-width="3.5" stroke-linejoin="bevel" x1="118.8" y1="106.8" x2="121.7" y2="101.8"/>
	<line fill="none" stroke="#292D32" stroke-width="3.5" stroke-linejoin="bevel" x1="112.4" y1="107.2" x2="109.5" y2="102.2"/>
	<line fill="none" stroke="#292D32" stroke-width="3.5" stroke-linejoin="bevel" x1="109.4" y1="112.9" x2="103.7" y2="112.9"/>
	<line fill="none" stroke="#292D32" stroke-width="3.5" stroke-linejoin="bevel" x1="113" y1="118.4" x2="110.1" y2="123.4"/>
	<line fill="none" stroke="#292D32" stroke-width="3.5" stroke-linejoin="bevel" x1="119.4" y1="118" x2="122.3" y2="123"/>
</g>
<polyline fill="none" stroke="#292D32" stroke-width="3.5" points="227.5,120.5 205.5,120.5 240.6,41.5 "/>
<polyline fill="none" stroke="#292D32" stroke-width="3.5" points="154.5,120.5 132.5,120.5 132.5,42 "/>
<path fill="none" stroke="#292D32" stroke-width="3.5" d="M53.5,120.5h41c0,0,6,0,12-2"/>
<polyline fill="none" stroke="#292D32" stroke-width="3.5" points="88.5,72.5 73.5,72.5 73.5,57.5 "/>
<polyline fill="none" stroke="#292D32" stroke-width="3.5" points="93,104.5 73.5,104.5 73.5,88 "/>
<path fill="none" stroke="#292D32" stroke-width="3.5" d="M389.5,43"/>
<path fill="none" stroke="#292D32" stroke-width="3.5" d="M410.5,58.5v45h15c0,0,10-1,14-7"/>
<path fill="none" stroke="#292D32" stroke-width="3.5" stroke-dasharray="4" d="M423.7,41.4c8.2,0,15.5,1.6,21.8,4.9
	c6.3,3.3,11.3,7.9,14.8,13.9s5.3,12.8,5.3,20.5s-1.8,14.6-5.3,20.6c-3.6,6-8.6,10.6-15.1,13.9c-6.5,3.3-13.9,4.9-22.3,4.9h-33.1"/>
<g>
	<g>
		<polygon fill="#292D32" points="125.4,252.7 125.3,204.3 122.4,203.6 102.7,244.8 91.4,244.8 71.6,203.6 68.7,204.3 68.7,252.7 
			53.4,252.7 53.4,176.9 73.3,176.9 97.1,224.9 120.7,176.9 140.6,176.9 140.6,252.7 		"/>
		<path fill="#292D32" d="M139.1,178.4v72.7h-12.2l-0.1-46.9l-5.7-1.3l-19.3,40.3h-9.5L72.9,203l-5.7,1.3v46.9H54.9v-72.7h17.5
			l22,44.4l2.7,5.4l2.7-5.4l21.9-44.4h17.4 M142.1,175.4h-22.3l-22.7,46.1l-22.8-46.1H51.9v78.7h18.3v-49.9l20.2,42h13.3l20.1-42
			l0.1,49.9h18.2L142.1,175.4L142.1,175.4z"/>
	</g>
	<g>
		<path fill="#292D32" d="M216.3,252.7l-5.4-13.9h-36.1l-5.5,13.9h-17.8L184,177h19.1l31.8,75.7H216.3z M179.8,226H206l-13-33.7
			L179.8,226z"/>
		<path fill="#292D32" d="M202.1,178.4l30.5,72.7h-15.3l-4.6-12l-0.7-1.9h-2.1h-34h-2l-0.7,1.9l-4.8,12h-14.5l31.2-72.7H202.1
			 M177.6,227.5h4.4h21.8h4.4l-1.6-4.1l-10.8-28.1l-2.8-7.2l-2.8,7.2l-11,28.1L177.6,227.5 M204.1,175.4H183l-33.8,78.7h21.1
			l5.5-13.9h34l5.4,13.9h21.9L204.1,175.4L204.1,175.4z M182,224.5l11-28.1l10.8,28.1H182L182,224.5z"/>
	</g>
	<g>
		<path fill="#292D32" d="M292.4,252.7L281,230.9h-17.7v21.8h-17.6V177h33.9c10,0,17.8,2.3,23.2,6.9c5.4,4.6,8.1,10.9,8.1,19.2
			c0,5.6-1.1,10.5-3.4,14.6c-2.2,4-5.5,7.2-9.8,9.5l-1.4,0.8l15.8,24.8h-19.7V252.7z M263.3,217.5h16.4c4.6,0,8.2-1.2,10.7-3.5
			c2.6-2.4,3.9-5.8,3.9-10.2c0-4.2-1.3-7.6-3.9-9.9c-2.6-2.3-6.2-3.5-10.7-3.5h-16.4V217.5z"/>
		<path fill="#292D32" d="M279.6,178.4c9.6,0,17.1,2.2,22.3,6.5c5.1,4.3,7.5,10.2,7.5,18.1c0,5.4-1.1,10-3.2,13.9
			c-2.1,3.8-5.1,6.7-9.2,8.9l-2.9,1.5l1.8,2.8l13.5,21.1h-16L282.7,231l-0.8-1.6h-1.8h-0.4h-14.8h-3v3v18.8h-14.6v-72.7h32.3
			 M261.8,219h3h14.9c4.9,0,8.9-1.3,11.7-3.9c2.9-2.7,4.4-6.5,4.4-11.3c0-4.7-1.5-8.4-4.4-11c-2.8-2.6-6.8-3.9-11.7-3.9h-14.9h-3v3
			V216V219 M279.6,175.4h-35.4v78.7h20.6v-21.8h14.8h0.4l11.5,21.8h23.3l-16.4-25.7c4.6-2.4,8.1-5.7,10.4-10.1
			c2.4-4.3,3.6-9.4,3.6-15.3c0-8.8-2.9-15.6-8.6-20.4S290,175.4,279.6,175.4L279.6,175.4z M264.8,216v-24.2h14.9
			c4.2,0,7.4,1,9.7,3.1s3.4,5,3.4,8.8c0,4-1.1,7-3.4,9.1c-2.3,2.1-5.5,3.1-9.7,3.1L264.8,216L264.8,216z"/>
	</g>
	<g>
		<polygon fill="#292D32" points="377.5,252.7 356.2,221.2 344.6,234 344.6,252.7 327.1,252.7 327.1,176.9 344.6,176.9 344.6,213.6 
			376.3,176.9 396.1,176.9 368.4,207.7 398.5,252.7 		"/>
		<path fill="#292D32" d="M392.7,178.4L368,205.9l-1.6,1.7l1.3,1.9l27.9,41.6h-17.4l-19.8-29.2l-2.2-3.2l-2.6,2.9l-9.9,11l-0.8,0.9
			v1.1v16.5h-14.6v-72.7h14.6v31.2v8.1l5.3-6.1l28.6-33.1L392.7,178.4 M399.5,175.4h-23.8l-29.5,34.2v-34.2h-20.6v78.7h20.6v-19.5
			l9.9-11l20.7,30.6h24.6l-31-46.3L399.5,175.4L399.5,175.4z"/>
	</g>
</g>
<g>
	<polygon fill="#292D32" points="415.1,174 411,181 413,186 418,188 430.9,174 	"/>
	<path fill="none" stroke="#292D32" stroke-width="3.5" stroke-miterlimit="10" d="M420.2,185.6c-2.1,2.1-5.5,2.1-7.5,0l-0.2-0.2
		c-2.1-2.1-2.1-5.5,0-7.5l25-25c2.1-2.1,5.5-2.1,7.5,0l0.2,0.2c2.1,2.1,2.1,5.5,0,7.5L420.2,185.6z"/>
	<line fill="none" stroke="#292D32" stroke-width="3.5" stroke-miterlimit="10" x1="425.4" y1="154.9" x2="444" y2="173.5"/>
	<line fill="none" stroke="#292D32" stroke-width="3.5" stroke-miterlimit="10" x1="407.4" y1="190.8" x2="413.6" y2="184.6"/>
</g>
</svg>
