<?xml version="1.0" encoding="utf-8"?>
<!-- Generator: Adobe Illustrator 21.0.0, SVG Export Plug-In . SVG Version: 6.00 Build 0)  -->
<svg version="1.1" id="Layer_1" xmlns="http://www.w3.org/2000/svg" xmlns:xlink="http://www.w3.org/1999/xlink" x="0px" y="0px"
	 viewBox="0 0 40 40" enable-background="new 0 0 40 40" xml:space="preserve">
<g>
	<g>
		<path fill="#FFFFFF" d="M22.2,33.9l-5.6-2.8c-0.6-0.3-0.8-0.7-0.8-1.3v-6.7l-9.5-15C5.6,7.3,6.3,6,7.4,6h25.2
			c1.1,0,1.8,1.3,1.1,2.1l-9.5,15v9.5C24.2,33.6,23.1,34.3,22.2,33.9z M18.6,29l2.8,1.4v-7.7c0-0.3,0.1-0.6,0.3-0.7l8.4-13H9.9
			l8.4,13c0.1,0.1,0.3,0.4,0.3,0.7V29z"/>
	</g>
</g>
</svg>
