<?xml version="1.0" encoding="utf-8"?>
<!-- Generator: Adobe Illustrator 21.0.0, SVG Export Plug-In . SVG Version: 6.00 Build 0)  -->
<svg version="1.1" id="Layer_1" xmlns="http://www.w3.org/2000/svg" xmlns:xlink="http://www.w3.org/1999/xlink" x="0px" y="0px"
	 viewBox="0 0 1024 1024" enable-background="new 0 0 1024 1024" xml:space="preserve">
<circle fill="#FFFFFF" cx="254.5" cy="261.2" r="86.7"/>
<circle fill="#FFFFFF" cx="125.6" cy="463.1" r="96.5"/>
<circle fill="#FFFFFF" cx="334.7" cy="846" r="71"/>
<circle fill="#FFFFFF" cx="692.8" cy="250" r="77.8"/>
<circle fill="#FFFFFF" cx="806.5" cy="721.1" r="115.1"/>
<circle fill="#FFFFFF" cx="476.8" cy="130.7" r="122.6"/>
<circle fill="#FFFFFF" cx="571.7" cy="894.5" r="122.6"/>
<circle fill="#FFFFFF" cx="155.2" cy="706.8" r="106.9"/>
<circle fill="#FFFFFF" cx="866.8" cy="439.3" r="128.6"/>
<g>
	<circle fill="#07C15F" cx="288.5" cy="246.5" r="3.2"/>
	<path fill="#07C15F" d="M225.3,275.9c-4.7,0-7-2.7-7-7.1V257h-4.2v-4.6h4.2v-5.9l5.6-1.4v7.3h5.8v4.6h-5.8v11.3
		c0,1.8,0.8,2.5,2.6,2.5c1.2,0,2.1,0,3.6-0.2v4.7C228.6,275.7,227,275.9,225.3,275.9z"/>
	<path fill="#07C15F" d="M245.3,257.3c-3.9,0-6,2.8-6,6.6v11.7h-5.6v-23.2h4.7l0.5,3.5c1.1-2.7,3.8-3.8,6.6-3.8c0.6,0,1.2,0,1.7,0.1
		v5.4C246.6,257.4,245.9,257.3,245.3,257.3z"/>
	<path fill="#07C15F" d="M265.3,275.6l-0.4-3c-1.1,2.3-3.7,3.6-6.7,3.6c-5,0-8-3.3-8-8.3v-15.5h5.6v14.2c0,2.7,1.1,4.4,4,4.4
		c1.3,0,2.2-0.5,2.9-1.2c1.3-1.2,1.7-3.3,1.7-5.2v-12.3h5.6v23.2H265.3z"/>
	<path fill="#07C15F" d="M280,275.8c-3.8,0-6.3-1.8-6.3-6.2v-26.3h5.6v25.4c0,1.3,0.3,2.2,2.2,2.2c0.5,0,0.6,0,0.9,0v4.7
		C281.3,275.7,281.1,275.8,280,275.8z"/>
	<path fill="#07C15F" d="M285.7,275.6v-23.2h5.7v23.2H285.7z"/>
	<path fill="#07C15F" d="M313.5,275.9c-2.4,0-3.7-1.5-3.9-3.3c-1.1,1.9-3.7,3.5-7.1,3.5c-5.5,0-8.4-3.5-8.4-7.3c0-4.4,3.4-7,7.9-7.3
		l6.8-0.5v-1.4c0-2.2-0.8-3.7-3.9-3.7c-2.6,0-4.1,1.2-4.2,3.3h-5.4c0.3-5.2,4.5-7.5,9.6-7.5c4,0,7.4,1.2,8.7,4.7
		c0.6,1.5,0.7,3.1,0.7,4.7v8.6c0,1.1,0.4,1.5,1.3,1.5c0.4,0,0.7-0.1,0.7-0.1v4.1C315.4,275.7,314.9,275.9,313.5,275.9z M308.8,265.3
		l-5.9,0.4c-1.7,0.1-3.3,1.2-3.3,3c0,1.8,1.6,2.9,3.3,2.9c3.5,0,5.9-1.9,5.9-5.3V265.3z"/>
	<g>
		<path fill="#07C15F" d="M201.2,243.3c-5.1,0-8.4,3.5-8.4,8.7c0,4.3,2.8,8,4.4,13.6c0.9,3.2,1.4,7.1,1.7,10h4.7
			c0.3-2.9,0.8-6.8,1.7-10c1.6-5.6,4.4-9.3,4.4-13.6C209.6,246.8,206.3,243.3,201.2,243.3z M201.2,256.5c-2.1,0-3.9-1.7-3.9-3.9
			s1.7-3.9,3.9-3.9s3.9,1.7,3.9,3.9S203.3,256.5,201.2,256.5z"/>
	</g>
</g>
<circle fill="#FFFFFF" cx="483.3" cy="518.2" r="211"/>
<g>
	<path fill="#69557E" d="M863.1,447.9c-1.8,2.5-3.7,4.1-6.5,4.4c-4.9,0.5-9-2.2-8.3-8.1c0.2-1.3,0.5-2.6,0.6-4c0.1-0.7,0.1-1.3,0-2
		c-0.4-2.4-2-3.2-4.2-2.1c-1.7,0.8-2.8,1.9-3,4c-0.3,3.4-1.1,6.7-1.6,10c-0.2,1.3-0.6,2-2.1,1.9c-1.9-0.1-3.8,0-5.8,0
		c0.1-1,0.1-1.8,0.2-2.9c-0.6,0.4-1,0.7-1.4,1c-1.8,1.4-3.9,2.1-6.2,2.1c-3.8,0.1-6.4-2.5-6.4-6.6c0-2.5,0.5-5.1,0.9-7.6
		c0.7-4.4,1.4-8.8,2.2-13.2c0.1-0.4,0.6-1.1,0.9-1.1c2.4-0.1,4.7-0.1,7.3-0.1c-0.6,3.4-1.1,6.6-1.7,9.8c-0.5,3.1-1,6.2-1.5,9.3
		c-0.1,0.4-0.1,0.8-0.1,1.2c0.1,1.1-0.1,2.2,1.1,2.8c1.3,0.6,2.5,0.3,3.6-0.5c1.4-1.1,2.3-2.6,2.6-4.4c1.5-9.2,3.1-18.3,4.6-27.5
		c0.1-0.9,0.5-1.3,1.3-1.4c2.2-0.3,4.5-0.6,6.9-0.9c-1,5.9-1.9,11.6-2.8,17.4c0.1,0.1,0.3,0.1,0.4,0.2c2-1.4,4.2-2.8,6.1-4.3
		c1.6-1.3,3.3-1.9,5.4-1.7c1.4,0.1,2.8,0,4.4,0.4c-3.1,2.3-6.2,4.6-9.5,7c0.5,0.2,0.8,0.4,1.1,0.4c3.8,0.6,6.2,4.1,5.4,7.9
		c-0.3,1.6-0.6,3.2-0.8,4.9c-0.1,1.2,0.2,2.3,1.5,2.7c1.4,0.5,2.8,0.2,3.4-0.9c0.9-1.5,1.7-3.2,2-4.9c1.1-5.7,1.9-11.4,2.8-17.3
		c2.6,0,5.1,0,8,0c-0.3,1.9-0.5,3.8-0.9,5.6c-0.7,4.4-1.5,8.8-2.3,13.2c-0.1,0.5-0.1,1-0.1,1.5c0,2.7,2,3.8,4.4,2.4
		c2.1-1.3,2.8-3.3,3.2-5.6c0.9-5.4,1.8-10.7,2.7-16.1c0.2-1,0.6-1.3,1.5-1.2c2.2,0,4.3,0,6.6,0c-0.1,0.9-0.1,1.7-0.2,2.7
		c0.9-0.7,1.5-1.2,2.2-1.7c1.9-1.4,4-1.5,6.2-1.2c2.5,0.4,4,2.2,4.4,4.7c0.6,4.2-0.7,8.2-1.4,12.2c-0.2,1.3-0.5,2.5-0.5,3.8
		c-0.1,2.3,1.4,3.4,3.6,2.7c1.7-0.5,2.6-1.9,2.6-3.7c-0.2-5.4,1.1-10.4,4.3-14.8c2.3-3.2,5.4-5.1,9.6-5.1c2.6,0,3.2,0.3,4.8,2.4
		c0.2-0.7,0.3-1.3,0.4-2c2.5,0,5,0,7.9,0c-1.5,8.7-2.9,17.3-4.4,26.3c1.8-0.4,3-1.2,4.1-2.3c2.1-2.1,2.6-4.8,3-7.6
		c1.4-8.4,2.8-16.8,4.1-25.3c0.2-1.4,0.8-1.9,2.3-2c2-0.1,4.1-0.5,6.4-0.9c-0.5,2.7-0.9,5.2-1.3,7.8c-1.3,7.3-2.6,14.7-3.8,22
		c-0.2,1-0.2,2-0.1,2.9c0.1,1.9,1.4,2.9,3.3,2.2c2.5-0.8,3.7-2.8,4.1-5.2c1-5.6,1.9-11.1,2.7-16.7c0.2-1,0.5-1.5,1.5-1.4
		c2.2,0.1,4.4,0,6.8,0c-0.5,3.1-1,5.9-1.5,8.7c-0.6,3.7-1.3,7.4-2,11.1c-0.1,0.5-0.1,0.9,0,1.4c0.2,2.1,1.8,2.9,3.6,1.7
		c1.8-1.2,2.7-3.1,3-5.2c0.9-5.4,1.7-10.8,2.5-16.1c0.2-1.2,0.6-1.7,1.9-1.6c2,0.1,4.1,0,6.5,0c-1.5,8.9-2.9,17.5-4.4,26.4
		c2.7-0.7,4.3-2.3,5.7-4.4c0,3.2-1.6,5-4.1,6.1c-1.4,0.6-2.1,1.4-2.4,3c-0.3,2-0.8,4.1-1.5,6c-1.8,4.6-6.7,6.7-11.4,5.1
		c-3.5-1.2-4.8-5.7-2.4-8.8c1.5-2,3.7-3,6-3.9c2.1-0.7,2.4-1.3,2.1-3.6c-6.6,4.3-9.4,3.9-12.7-1.7c-4.8,6-12.8,6-14.8,0.6
		c-2.2,1.4-4.6,2.7-6.8,4.1c-0.3,0.2-0.5,0.7-0.6,1.2c-0.5,2-0.8,4-1.4,6c-1.5,5-5.8,7.5-10.9,6.4c-2.1-0.5-3.6-1.5-4.2-3.6
		c-0.6-2.2-0.5-4.5,1.4-6c1.7-1.4,3.8-2.4,5.8-3.4c1.6-0.8,2-1.2,1.8-3.2c-7.3,3.7-10.1,3.3-13.7-2c-0.3,0.4-0.7,0.7-1,1.1
		c-2.2,2.7-4.9,3.8-8.3,3.2c-3.2-0.6-5.4-2.9-5.2-6.1c0.2-3.3,0.9-6.6,1.3-9.9c0.2-1.7,0.5-3.4,0.4-5.1c0-0.8-0.7-2.1-1.3-2.3
		c-0.9-0.3-2.4,0-2.9,0.6c-1,1.3-1.9,2.8-2.3,4.4c-1.1,5.4-2,10.8-2.9,16.2c-0.2,1.6-0.8,2.2-2.4,2c-1.8-0.2-3.7,0-5.6,0
		c0.1-1,0.1-1.7,0.2-3c-2.4,2.2-4.8,3.2-7.5,3.3C866.4,452.4,864.2,451,863.1,447.9z M914.3,442.1c0.1,0.7,0.1,1.7,0.3,2.7
		c0.6,2.4,2.7,3.3,4.5,1.8c1.2-1,2.5-2.5,2.8-4c1-4.4,1.5-8.8,2.1-13.2c0.2-1.5-0.8-2.5-2.4-2.5c-2.1,0-3.3,1.3-4.2,2.9
		C915.2,433.4,914.5,437.5,914.3,442.1z M919.6,455c-2.2,1-4.2,1.8-5.3,3.9c-0.6,1.1-0.3,2.1,0.7,2.8c1,0.7,2,0.5,2.7-0.4
		C919.2,459.6,919.9,457.6,919.6,455z M962.5,455.5c-0.2-0.1-0.4-0.2-0.6-0.4c-1.8,0.9-3.7,1.6-4.8,3.6c-0.7,1.3-0.4,2.3,0.7,3.1
		c1.1,0.7,2.1,0.5,2.8-0.9C961.4,459.2,961.8,457.3,962.5,455.5z"/>
	<path fill="#69557E" d="M795.9,452.1c0.1-1,0.2-1.8,0.3-2.9c-0.6,0.4-0.9,0.6-1.3,0.9c-2,1.6-4.3,2.4-6.7,2.3c-4.2-0.2-6.5-3-6-7.6
		c0.6-5.6,1.6-11.2,2.5-16.9c-0.9-0.1-1.7-0.1-2.8-0.2c0.1-1.1,0.2-2.1,0.5-3c0.1-0.4,0.9-0.7,1.4-0.7c1.6,0.2,2.1-0.5,2.2-1.9
		c0.1-1.6,0.5-3.3,0.7-4.9c0.1-1,0.4-1.4,1.5-1.5c2.3-0.2,4.6-0.6,7-0.9c-0.6,3.1-1.1,6-1.7,9.1c1.5,0.1,2.8,0.2,4.2,0.2
		c0,0.3,0.1,0.5,0,0.7c-0.3,3.1-0.3,3.2-3.4,3.1c-1.2,0-1.5,0.3-1.7,1.5c-0.7,4.4-1.6,8.7-2.3,13c-0.2,0.9-0.1,1.8-0.1,2.8
		c0.1,1.7,1.2,2.6,2.9,2.3c2.1-0.4,3.9-2.3,4.3-4.5c1-5.8,1.9-11.5,2.8-17.3c0.2-1.2,0.6-1.7,1.9-1.6c2,0.1,4.1,0,6.3,0
		c-0.1,1.1-0.2,2.1-0.3,3.3c0.7-0.5,1.2-0.8,1.6-1.2c1.5-1.3,3.2-2.2,5.3-2.1c2.3,0.1,3.8,1.8,3.7,4.6c-0.1,2.2-1.4,3.4-3.7,3.4
		c-1.3,0-2.1-0.6-2.2-1.8c-0.2-1.5-1.2-1.5-2.3-1.2c-2.1,0.5-3.3,2-3.6,4.1c-0.9,6-1.9,12.1-2.9,18.1c-0.1,0.4-0.6,1.1-0.9,1.1
		C800.7,452.1,798.4,452.1,795.9,452.1z"/>
	<path fill="#69557E" d="M765.9,440.9c-0.3,0.5-0.5,0.9-0.7,1.4c-0.7,1.7-0.3,3.3,0.9,4.1c1.3,0.8,3.3,0.6,4.4-0.5
		c1.2-1.2,1.5-3.4,0.5-4.7c-0.6-0.7-1.3-1.2-1.9-1.7c-0.8-0.6-1.7-1.1-2.6-1.7c-3.2-2.1-4.5-5.1-3.8-8.7c0.3-1.5,1.1-3.1,2.2-4.1
		c3-2.8,9.6-3.1,13-0.7c1.5,1,2,2.5,1.8,4.3c-0.2,1.4-0.9,2.4-2.3,2.9c-1.9,0.7-3.2,0.2-3.7-1.8c-0.4-1.4-1.2-1.6-2.4-1.5
		c-1.2,0.1-2,0.6-2.2,1.9c-0.3,2,0.3,3.7,2,4.8c1.3,0.9,2.8,1.6,4.2,2.3c3.1,1.6,4.2,4.2,3.8,7.6c-0.3,3.1-1.7,5.4-4.7,6.5
		c-3.4,1.2-6.8,1.5-10.3,0.5c-3.8-1.1-5.5-5.5-3.7-9C761.3,441,762.8,440.5,765.9,440.9z"/>
</g>
<g>
	<path fill="#EA4335" d="M460.2,521c0,15.2-11.9,26.4-26.4,26.4c-14.6,0-26.4-11.2-26.4-26.4c0-15.3,11.9-26.4,26.4-26.4
		C448.3,494.6,460.2,505.7,460.2,521z M448.6,521c0-9.5-6.9-16-14.9-16c-8,0-14.9,6.5-14.9,16c0,9.4,6.9,16,14.9,16
		C441.7,537,448.6,530.4,448.6,521z"/>
	<path fill="#FBBC05" d="M517.2,521c0,15.2-11.9,26.4-26.4,26.4s-26.4-11.2-26.4-26.4c0-15.3,11.9-26.4,26.4-26.4
		S517.2,505.7,517.2,521z M505.6,521c0-9.5-6.9-16-14.9-16s-14.9,6.5-14.9,16c0,9.4,6.9,16,14.9,16S505.6,530.4,505.6,521z"/>
	<path fill="#4285F4" d="M571.9,496.2v47.3c0,19.5-11.5,27.4-25,27.4c-12.8,0-20.5-8.5-23.4-15.5l10.1-4.2c1.8,4.3,6.2,9.4,13.3,9.4
		c8.7,0,14.1-5.4,14.1-15.4v-3.8h-0.4c-2.6,3.2-7.6,6-13.9,6c-13.2,0-25.2-11.5-25.2-26.2c0-14.9,12.1-26.4,25.2-26.4
		c6.3,0,11.3,2.8,13.9,5.9h0.4v-4.3L571.9,496.2L571.9,496.2z M561.7,521.1c0-9.3-6.2-16.1-14.1-16.1c-8,0-14.7,6.8-14.7,16.1
		c0,9.2,6.7,15.9,14.7,15.9C555.5,537,561.7,530.3,561.7,521.1z"/>
	<path fill="#34A853" d="M590,468.5v77.2h-11.3v-77.2H590z"/>
	<path fill="#EA4335" d="M634,529.7l9,6c-2.9,4.3-9.9,11.7-22,11.7c-15,0-26.2-11.6-26.2-26.4c0-15.7,11.3-26.4,24.9-26.4
		c13.7,0,20.4,10.9,22.6,16.8l1.2,3L608.2,529c2.7,5.3,6.9,8,12.8,8C626.9,537,631,534.1,634,529.7L634,529.7z M606.3,520.2
		l23.6-9.8c-1.3-3.3-5.2-5.6-9.8-5.6C614.2,504.8,606,510,606.3,520.2z"/>
	<path fill="#4285F4" d="M364.6,514.1V503h37.7c0.4,1.9,0.6,4.3,0.6,6.7c0,8.4-2.3,18.8-9.7,26.2c-7.2,7.5-16.4,11.5-28.5,11.5
		c-22.6,0-41.5-18.4-41.5-40.9c0-22.6,19-40.9,41.5-40.9c12.5,0,21.4,4.9,28,11.3l-7.9,7.9c-4.8-4.5-11.3-8-20.2-8
		c-16.5,0-29.3,13.3-29.3,29.7c0,16.5,12.9,29.7,29.3,29.7c10.7,0,16.8-4.3,20.7-8.2c3.2-3.2,5.2-7.7,6.1-13.8L364.6,514.1z"/>
</g>
<g>
	<g id="logos" transform="translate(-112.000000, -79.000000)">
		<path id="logo_standard" fill="#F748CD" d="M759,299.9h14.2v38.2c0,6.1,2.7,9.6,5,11.2
			c-2.3,2-9.4,3.8-14.7-0.5c-3.1-2.6-4.5-6.8-4.5-10.8C759,337.9,759,299.9,759,299.9z M847.9,331.6v-4h4.3v-14h-4.8
			c-1.8-8.5-9.4-14.8-18.3-14.8c-10.4,0-18.8,8.4-18.8,18.8v32.8c2.9,0.4,6.5,0,9.5-2.6c3.1-2.6,4.5-6.8,4.5-10.8v-1.2h7.1v-14h-7.1
			v-4.3l0,0c0-2.6,2.1-4.8,4.8-4.8s4.8,2.1,4.8,4.8v14.1c0,10.4,8.4,18.8,18.8,18.8v-14C850,336.4,847.9,334.2,847.9,331.6z
			 M794.1,313.5v20.7c0,1.2-1,2.1-2.2,2.1c-1.2,0-2.2-0.9-2.2-2.1v-20.7h-14v24.3c0,4.3,1.5,9.9,8.2,11.7s10.6-1.9,10.6-1.9
			c-0.4,2.5-2.6,4.3-6.4,4.6c-2.8,0.3-6.4-0.7-8.2-1.4v12.9c4.6,1.4,9.4,1.8,14.2,0.9c8.6-1.7,14-8.8,14-18.4v-32.6L794.1,313.5
			L794.1,313.5z"/>
	</g>
</g>
<g>
	<path fill="#FF002B" d="M291.2,832c2.2,0.4,4.4,0.6,6.6,1.2c4.5,1.3,6.9,5.4,5.7,9.7c-0.6,2.2-2.1,3.7-4.1,4.6
		c-2.5,1.1-5.1,2-7.6,3c-1.1,0.5-2.2,1-3.2,1.6c-1.8,1-3,2.4-2.5,4.8c-1.4-1.5-2.1-3.3-2.7-5.2c0-0.5,0-1.1,0-1.6
		c0.8-1.1,1.3-2.5,2.3-3.3c1.3-1.1,3-1.7,4.5-2.4c1.8-0.8,3.7-1.4,5.5-2.4c3-1.6,3.3-4.7,0.6-6.8c-1.1-0.8-2.5-1.5-3.8-1.8
		c-2.5-0.5-5.2-0.7-7.4-1c0.9-0.1,2.1-0.3,3.3-0.5C289.4,832,290.3,832,291.2,832z"/>
	<path fill="#FF002B" d="M334.6,857.8c-0.5-0.1-1-0.2-1.4-0.3c-3-0.8-4.9-2.7-5.5-5.6c-0.8-3.7-0.8-7.5,0-11.1c0.8-4,4.1-6.3,8.4-6
		c4.4,0.3,7.3,3,7.5,7.2c0.2,3.1,0.2,6.3-0.2,9.4c-0.5,3.6-2.8,5.8-6.5,6.3c-0.1,0-0.3,0.1-0.4,0.2
		C335.8,857.8,335.2,857.8,334.6,857.8z M340.7,846.2c-0.2-1.6-0.2-3.3-0.5-4.8c-0.5-2.6-2.3-3.8-5-3.8c-2.4,0.1-4.3,1.5-4.5,4
		c-0.2,3.1-0.2,6.2,0,9.2c0.2,2.5,2.1,3.9,4.5,4c2.8,0.1,4.5-1.2,5-3.8C340.5,849.4,340.6,847.8,340.7,846.2z"/>
	<path fill="#FF002B" d="M379.1,857.8c-0.5-0.1-1-0.3-1.5-0.4c-3.3-0.9-5.5-3.6-5.6-7.2c-0.1-2.6-0.1-5.2,0-7.9
		c0.2-4.6,3.3-7.6,8-7.6c4.6-0.1,7.8,2.9,8.2,7.5c0,0.4,0.1,0.8,0.2,1.2c0,1.9,0,3.7,0,5.6c-0.1,0.5-0.2,1-0.2,1.6
		c-0.3,3.4-2.5,6.1-5.7,6.9c-0.5,0.1-1,0.2-1.4,0.3C380.3,857.8,379.7,857.8,379.1,857.8z M385.3,845.8c-0.2-1.3-0.2-3.1-0.6-4.8
		c-0.5-2.3-2.3-3.4-4.8-3.4c-2.4,0-4,1.3-4.5,3.6c-0.7,3.2-0.7,6.5-0.1,9.8c0.5,2.7,2.2,4,5,3.8c2.5-0.1,4.2-1.6,4.5-4.2
		C385.1,849.1,385.1,847.7,385.3,845.8z"/>
	<path fill="#FF002B" d="M320.2,847.7c1.6,3.1,3.1,6.2,4.8,9.5c-1.2,0-2.3,0.1-3.3,0c-0.2,0-0.5-0.5-0.7-0.9c-1.2-2.5-2.5-5-3.7-7.5
		c-0.3-0.7-0.7-0.9-1.4-0.9c-1.2,0.1-2.5,0-3.9,0c0,1.4,0,2.7,0,4c0,1.5,0,2.9,0,4.4c0,0.7-0.2,1-0.9,1c-2.8,0-2.2,0.3-2.2-2.2
		c0-6.3,0-12.6,0-18.9c0-0.9,0.2-1.3,1.2-1.2c2.5,0.1,4.9,0,7.4,0c3.6,0,6,1.8,6.7,4.8c0.7,3.2-0.6,6.3-3.8,7.6
		C320.4,847.5,320.3,847.5,320.2,847.7z M312.1,845c2.1,0,4,0.1,6,0c1.8-0.1,2.9-1.3,3.1-2.9c0.2-2.1-0.5-3.6-2.2-3.9
		c-2.2-0.4-4.5-0.3-6.9-0.5C312.1,840.4,312.1,842.6,312.1,845z"/>
	<path fill="#FF002B" d="M345.1,835c0.8,0,1.7-0.1,2.4,0c0.4,0.1,0.8,0.6,0.9,1.1c1.7,4.8,3.3,9.7,4.9,14.6c0.1,0.4,0.3,0.7,0.5,1.4
		c0.2-0.6,0.4-0.9,0.5-1.3c1.5-4.7,2.9-9.3,4.5-14c0.7-2.2,0.2-1.8,2.6-1.9c0.3,0,0.6,0,1,0.1c0,0.3,0,0.5-0.1,0.7
		c-2.3,6.9-4.6,13.7-6.9,20.6c-0.3,0.8-0.7,1-1.5,0.9c-0.7-0.1-1.5,0.2-1.8-0.9c-2.3-6.9-4.7-13.9-7-20.8
		C345.1,835.5,345.1,835.3,345.1,835z"/>
	<path fill="#FF002B" d="M365.2,835.1c3.2-0.4,3.2-0.4,3.2,2.5c0,6.1,0,12.1,0,18.2c0,1.2-0.3,1.6-1.5,1.5c-1.9-0.1-1.7,0.2-1.7-1.8
		c0-6.3,0-12.7,0-19C365.2,836.1,365.2,835.6,365.2,835.1z"/>
	<path fill="#FF002B" d="M303.6,857.4c-1.8-0.1-3.6-0.2-5.4-0.4c-0.8-0.1-1.6-0.5-2.3-1c-1.5-1.1-1.7-2.9-0.3-4.1
		c1.1-1,2.4-1.6,3.7-2.3c-0.2,1.7-0.7,3.4,0.4,4.7C300.8,855.5,302.2,856.3,303.6,857.4z"/>
</g>
<g>
	<path fill="#F00000" d="M757.3,700.4c0,0,2.6-0.2,4.6,1.1c0.7,0,1.3,0.3,1.7,1c0.4,0.7,1.1,2.4,0.5,3.4c-0.2,0.2-0.6-0.6-0.6-0.6
		s-0.3,1-0.8,1.4c0.1,2.1-0.8,3.6-1,4c-0.1,0.3,0,0.5,0.1,0.8c0.1,0.3,1.5,5.2,1.4,6.8c-0.1,1.6-0.9,3.6-1.6,4.2
		c0.1,1.4-0.5,2.5-0.8,3.1c-0.3,0.6-1,2.6-1.2,3.6c-0.2,1-0.2,2,0,2.3c0.2,0.3,1.1,1.3,1.1,1.8s-1.1,1-1.6,1c-0.5,0-1.5-0.3-1.7-1
		c-0.2-0.7-0.3-1.8-0.1-2.5c0.2-0.7,1.4-5.5,0.7-8.4c-1.7,0.8-4.6,0.7-4.6,0.7s-0.5,2.5-1.1,4c-0.2,0.3-0.2,2.7-0.2,4.2
		c0,1.5,0.5,3.8,0.5,3.8s0.7,0.5,0.6,1.2c-0.1,0.7-0.9,1-1.7,1c-0.7,0-1.7-0.6-1.7-1.5c0-0.9,0.1-3,0.1-4.5c-0.1-1.5,0-2.5-0.3-3.4
		c-0.2-0.9-0.9-3.4-1-5.3c-0.2,0-0.5-0.2-0.5-0.2s-1.1,1.3-2,2.1c0.1,0.5,0.4,1.5,0.4,1.7s0.2,0.4,0.6,0.5c0.3,0.1,1.4,0.7,1.4,1.3
		c0,0.6-1.4,0.7-2.6,0.2c-0.3-0.1-1.3-3.5-1.4-4c-0.1-0.5-0.2-0.7-0.1-1.1c0.2-0.4,0.7-1.6,0.6-2.4c-0.1-0.7-1.4-1.9-2.3-1.9
		c-0.7,0-1.8,1.1-2.5,1.7c-0.9,0.7-2,1.8-2.3,2c-0.3,0.2-2.5,4.1-2.9,5.3c-0.2,0.5-0.5,2.7-2.4,2.6c-0.8-0.1-1.6-1,0.8-2.6
		c0.6-1.4,1.4-2.8,1.5-3.1c0.1-0.3,0.7-3.9,1.7-7.3c1-3.4,2.6-5,2.9-5.3c0.2-0.2,0.4-0.3,0.1-0.4c-0.2-0.1-2.7-2.2-2.2-6.7
		c0.1-0.5,0.3-0.4,0.5,0.8c0.2,1.2,1.1,4,3.3,4.9c0.2,0.1,1.8-1.1,9.6-1.7c0.1-1.4,0.3-2.8,0.3-2.8s-0.5-0.4-0.6-1.3
		c-0.3,0.4-0.4,0.5-0.8,0.5c-0.3-0.1-0.3-1.7-0.2-2.8c0.1-1.1,1.4-1.6,1.9-1.7c0.7-0.3,1.4-0.3,1.4-0.3S753.9,699.8,757.3,700.4z"/>
	<path fill="#F00000" d="M772.2,707.5h22l-11.4,18.6h11.6v5.1h-22.2l11.8-18.5h-11.8V707.5z"/>
	<path fill="#F00000" d="M795.1,707.5h6.7l5.4,14.1l5.7-14.1h6.2l-12.6,31.6h-6.6l4-9L795.1,707.5z"/>
	<path fill="#F00000" d="M820.1,707.5h6.2v2c0,0,2.4-2.5,6.7-2.5c4.2,0,7,3.5,7,7.3v16.9h-6.2V715c0-3.6-4.1-3.3-7.5,1.6v14.7h-6.2
		C820.1,731.3,820.1,707.5,820.1,707.5z"/>
	<path fill="#F00000" d="M864.5,724.5v-17h-6.2v1c0,0-2.4-1.3-4.7-1.5c-3.7-0.2-10.7,2.6-10.8,12c0,10.3,7.2,11.7,9.4,11.7
		c1.4,0,3.7-0.2,6.1-2.1c0,4.8-2.7,5.7-5.1,5.7h-6.5l0,5.3c0,0,3.5,0,7.2-0.2C864.9,738.8,864.5,730,864.5,724.5L864.5,724.5z
		 M858.3,722.2c0,0-1.9,2.8-5.3,2.8c-3.4,0-3.8-3.3-3.8-5.8s0.7-7,4.6-7c2.8,0,4.5,2,4.5,2L858.3,722.2L858.3,722.2z"/>
	<path fill="#F00000" d="M888.1,726.5c-2.7,0.7-2.6-0.5-2.6-2.2v-10.1c0-5.1-3.8-7.3-8.1-7.3c-4.4,0-8.5,2.1-8.5,2.1v5.8
		c0,0,3.8-2.6,7.6-2.6c3.8,0,2.9,2.9,2.9,4.1c-8.1,0.1-12.4,3.2-12.4,8.5c0,5.3,5,7,7.2,7c2.2,0,4.6-1,6.4-2.4
		c0.7,1.2,2.1,2.4,4,2.4c2,0,4.1-1.1,4.1-1.1S888.3,727.7,888.1,726.5L888.1,726.5z M879.3,724.7c0,0-1.7,1.6-3.8,1.6
		c-2.1,0-2.4-1.6-2.4-2.1c0-0.5,0.3-3.6,6.2-3.3V724.7z"/>
</g>
<path fill="#3F5D87" d="M80.1,686.1c-1.6,0-3.6,1.7-4.9,2.8c-2.7,2.4-5.1,6.7-5.1,10.2c0,5,4.2,6.8,5.3,6.8c0.4,0,0.7-0.2,0.7-0.7
	c0-0.4-0.2-0.7-0.5-1c-1-1.5-1.3-2.9-1.3-4.8c0-4,1.8-7.7,3.4-9.4c0.3-0.3,0.9-1,1.1-1c0.2,0,0.2,0.2,0.2,0.6L78.8,716
	c0,4.1-1.2,5.7-1.2,6.7c0,0.4,0.2,0.5,0.5,0.5c1.7,0,3.3-2,3.8-2.8c1.5-2.5,1.8-4.5,1.8-10.1v-22c0-0.6-0.2-0.9-0.7-1.2
	C82.2,686.5,81.3,686.1,80.1,686.1z M127.5,686.2c-0.8,0-1.1,0.4-1.2,1.7l-0.2,5.2l-4.6-0.2c-0.3,0-0.4,0.1-0.5,0.3
	c-0.4,0.7-0.6,1.3-0.6,2.3c0,0.8,0.4,0.9,0.7,0.9l4.8,0.1l0,10c0,2.1-1.3,4.9-3.7,7.2c0,0,0.2-0.7,0.2-1.4c0-2.1-1.3-3.9-3.1-5.2
	l-4.3-3.2c0.9-1,2.4-3.1,2.4-4.9c0-1.4-0.9-1.9-2.4-1.9c-2.2,0-4.8,2-4.8,5.1c0,1.1,0.5,2.1,1.2,2.9c-1,2-2.5,4.5-3.6,6.4
	c-0.8,1.4-2.2,3.6-3,3.6c-0.6,0-0.9-1-0.9-4.6c0-3,0.2-6.4,0.3-9.5c0-0.7-0.1-1.4-1.1-2.1c-0.9-0.6-1.9-1.3-3-1.3
	c-2.5,0-4.1,2.3-5.3,4.5c-1.2,2.3-1.8,4.2-2.7,7l0.1-9.6c0-0.7-0.1-1-0.7-1.2c-0.7-0.3-1.8-0.7-2.7-0.7c-0.8,0-0.9,0.3-0.9,1.2
	l-0.1,11.6l0,4.5c0,4,0.5,4.7,2.9,4.7c1.3,0,1.7-0.2,1.8-1.3c0-0.7,0.4-2.5,0.9-4.3c1.4-5.2,3-9.3,5.8-12.5c0.3-0.3,0.5-0.2,0.5,0.2
	c0,0-0.4,7.1-0.4,9.9c0,5.1,0.8,7.8,3.3,7.8c2.5,0,5-3.2,6.3-5.4l4.3-7.2c2.8,2.4,4.7,4.2,4.7,6.5c0,1.4-0.9,2.8-2.2,2.8
	c-1.7,0-2.7-1.8-3.9-1.8c-0.9,0-2.1,1.8-2.1,2.8c0,1,2.1,2.3,5.9,2.3c5.6,0,8.6-3.9,10.4-8.1c0.3,5.1,2.4,8,5.5,8
	c2.1,0,4.5-2.6,5.5-5.8c0,0,0.1,0.8,0.9,2.5c1.1,2.2,2.9,3.2,5,3.2c2.7,0,4.9-1.6,6.3-4.3c0.2,2.1,1.9,4.3,4.7,4.3
	c1.7,0,3.3-1.3,4.4-3.5c0,0,1.4,3.6,5.3,3.6c2.2,0,4.8-2,5.4-3.5l0.1,2.1l-5.8,5.3c-1.7,1.6-3.5,4-3.5,6.6c0,3.3,3.1,5.2,5.9,5.2
	c2.9,0,4.7-1.8,5.8-3.3c1.3-2,1.9-5.7,1.9-9.3l-0.1-5.4c3.9-4.3,7-10.2,8.3-14.4l3-0.1c0.6,0,0.5,0.2,0.5,0.5c-0.5,2.2-1,4.7-1,7.2
	c0,4.1,0.9,5.9,2.3,7.3c1.2,1.2,2.4,1.6,3.6,1.6c2.4,0,3.9-2,4.4-3.3c1.1,2.2,2.8,3.2,5,3.2c2.7,0,4.9-1.6,6.3-4.3
	c0.2,2.1,1.9,4.3,4.7,4.3c2.1,0,3.3-1.2,4.2-3.5c0,0.7,0,1.5,0.1,2.2c0,0.4,0.3,0.6,0.6,0.7c0.9,0.3,1.7,0.5,2.4,0.5
	c1.8,0,2.2-0.4,2.2-1.6c0-2,0.1-5,0.6-7.5c0.6-2.5,1.5-5.3,2.7-7.2c0.1-0.2,0.4-0.1,0.4,0.1c0.2,4.2,0.5,11.2,1.5,13
	c0.5,0.9,1.4,1.5,2.6,1.5c0.6,0,1.3-0.2,1.5-0.4c0.2-0.1,0.3-0.3,0.3-0.6c0-5.3,1.7-10.5,3.3-13.9c0-0.1,0.2-0.1,0.2,0l-0.1,3.8
	c0,6.3,0.5,10.3,3.6,12.2c0.6,0.3,1.3,0.5,2,0.5c1.6,0,3.1-0.9,3.8-2.3c0.6-1.1,1.1-3.3,1.1-4.5c0-0.5,0-1.2-0.8-1.2
	c-0.4,0-0.7,0.3-0.8,0.8c-0.2,1-0.5,1.9-0.8,2.9c-0.4,1-0.9,1.5-1.6,1.5c-0.8,0-1.2-0.6-1.4-1c-1-1.5-1.1-4.9-1.1-7.7l0.2-7.3
	c0-0.6-0.3-1.3-1.2-1.9c-0.6-0.4-2.2-1-3.2-1c-0.9,0-1.3,0.5-1.7,1.3c-0.6,1.3-2.7,6.6-3.2,10.9c0,0.1-0.2,0.1-0.2,0
	c-0.3-3-0.4-6.7-0.4-9.2c0-0.7-0.2-1.8-1.8-2.5c-0.8-0.3-1.4-0.5-2.2-0.5c-1,0-1.2,0.5-1.5,1.1c-1.1,2-1.8,4.7-3,8l0-7.6
	c0-0.4-0.2-0.8-0.8-0.9c-1.5-0.4-2.3-0.5-2.9-0.5c-0.4,0-0.7,0.4-0.7,0.7l-0.1,13c-0.3,1.6-1.5,5.4-3.2,5.4c-1.4,0-2.1-1.4-2.1-7.4
	l0.3-9.7c0-0.6-0.4-0.9-1-1.1c-0.8-0.3-1.5-0.5-2.4-0.5c-1.1,0-1.4,0.5-1.2,1.7c-1.2-1.6-2.4-2.5-4.4-2.5c-4.2,0-7.3,5-7.3,12.3
	c0,2,0.5,4.1,0.5,4.1c-0.4,1.7-1.3,3.1-2.5,3.1c-1.5,0-2.5-2.2-2.5-6c0-3.8,1.4-8.1,1.4-9.3c0-1.4-0.9-2.2-2.5-2.2
	c-0.8,0-3.7,0.7-5.2,0.9c0,0,0.2-0.7,0.2-1.3c0-1.3-0.6-2.2-2.2-2.2c-1.9,0-3.3,1.4-3.3,3.7c0,1,0.6,2,1.4,2.5
	c-1,4.3-2.7,7.5-5.2,11l0.2-14.4c0-0.5-0.1-0.8-1-1.1c-0.5-0.2-1.3-0.5-2.3-0.5c-1.4,0-1.3,1-1.3,1.8c-0.7-1.2-2.1-2.6-4.3-2.6
	c-6.1,0-7.9,9.3-7,15.9c0,0.8-0.8,3.7-2.6,3.7c-1.4,0-2.1-1.4-2.1-7.4l0.3-9.7c0-0.6-0.4-0.9-1-1.1c-0.8-0.3-1.5-0.5-2.4-0.5
	c-1.1,0-1.4,0.5-1.2,1.7c-1.2-1.6-2.4-2.5-4.4-2.5c-4.2,0-7.4,4.6-7.4,11.9c0,2.8-2.4,7-4.1,7c-0.9,0-1.9-1.7-1.9-6.1
	c0-3,0.4-13.2,0.4-13.2l5.9-0.1c0.3,0,0.4-0.3,0.5-0.5c0.3-0.5,0.4-0.9,0.4-1.6c0-0.6-0.1-0.8-0.9-0.8l-5.9-0.4l0.2-5.5
	c0-0.3-0.2-0.6-0.6-0.7C129.8,686.6,128.4,686.2,127.5,686.2z M145.3,700.5c1.6,0,3.2,1.4,3.2,6.5c0,6.4-2.3,9.4-4.1,9.4
	c-1.7,0-2.9-2.4-2.9-7C141.4,704.6,142.7,700.5,145.3,700.5L145.3,700.5z M201.7,700.5c1.6,0,3.2,1.4,3.2,6.5c0,6.4-2.3,9.4-4.1,9.4
	c-1.7,0-2.9-2.4-2.9-7C197.8,704.6,199.1,700.5,201.7,700.5L201.7,700.5z M166,700.5c2,0,2.9,2.1,2.9,6.2c0,6.2-1.8,9.7-4.1,9.7
	c-1.4,0-3.1-2.3-3-6.9C161.9,706.5,162.8,700.5,166,700.5L166,700.5z M169.4,721.1v2.4c0,8-2.1,9.4-3.9,9.4c-0.7,0-2.3-0.5-2.3-2.5
	c0-2.8,2.9-6,3.8-6.9L169.4,721.1L169.4,721.1z"/>
<path fill="#1CA7CC" d="M179,477.3c-2.8-0.2-5-1-6.7-2.7c-0.7-0.7-1.4-1.6-1.9-2.5c-0.1-0.1-0.1-0.3-0.2-0.3c0,0-0.2,0.1-0.4,0.2
	c-0.5,0.3-1.8,1.1-2.4,1.4c-3.8,2-7.7,3.3-11.7,3.6c-1.3,0.1-2.7,0.1-3.7,0c-2-0.2-3.7-0.8-5-1.8c-0.3-0.2-1.1-1-1.4-1.3
	c-0.3-0.3-0.5-0.7-0.7-1l-0.1-0.2l-0.4,0.4c-2.3,2-4.8,3.3-7.2,3.7c-1.2,0.2-2.4,0.2-3.3,0.1c-1.2-0.2-2.1-0.9-2.6-1.9
	c-0.6-1.1-0.7-2.7-0.4-4.9c0.2-1.3,0.3-2,0.9-4.4c0.3-1.3,0.6-2.8,0.7-3.7c0.1-0.6,0.1-1.4,0-1.8c-0.1-0.9-0.4-1.4-1-1.6
	c-0.2-0.1-0.7-0.1-1,0c-1.1,0.3-2.3,1.6-3.6,3.8c-1.9,3.1-2.9,6.1-3.2,9.1c-0.1,0.6-0.1,2.4,0,3c0.1,0.7,0.2,1.3,0.4,1.8
	c0.1,0.2,0.1,0.4,0.2,0.5c0,0.1,0,0.1-0.9,0c-1,0-1.7-0.1-2.4-0.2c-2.6-0.4-4.1-1.5-4.7-3.3c-0.4-1.1-0.5-2.3-0.4-4.2
	c0.1-1.2,0.3-2.3,0.6-3.8c0.4-1.4,0.5-2.3,0.6-3.3c0.1-0.6,0.1-1.6,0-1.9c-0.2-0.9-0.6-1.4-1.4-1.6c-0.2,0-0.3,0-0.6,0
	c-0.3,0-0.4,0-0.6,0.1c-1,0.4-2,1.7-3.1,3.8c-1.2,2.4-2,5-2.3,7.6c-0.1,1.4-0.1,3.4,0,4.8c0.1,0.7,0.2,1.5,0.4,1.9
	c0,0.1,0,0.1-0.8,0c-1.2,0-2-0.1-2.9-0.4c-1.3-0.3-2.4-0.9-3.1-1.8c-0.5-0.6-0.9-1.4-1.2-2.3c0-0.1-0.1-0.2-0.1-0.3
	c0,0-0.1,0.1-0.3,0.2c-2.2,2-4.2,3.3-6.3,4c-1.2,0.4-2.5,0.6-3.6,0.6c-1.7,0-2.9-0.6-3.7-1.8c-0.3-0.5-0.5-0.9-0.6-1.5
	c-0.3-1.2-0.2-2.6,0.2-4.8c0.3-1.5,0.6-2.6,1.3-5.1c0.5-1.7,0.8-3,1-3.8c0.2-0.6,0.2-0.7,0.2-1c0-1.1-0.4-1.7-1.2-1.7
	c-0.2,0-0.2,0-0.5,0.1c-0.3,0.2-0.6,0.3-1.2,0.8l-0.6,0.4l-0.1,0.2c-0.4,1.4-1.4,3.3-2.6,5.2c-1.3,2-3.2,4.6-4.8,6.6
	c-3.2,3.9-6,6-8.4,6.4c-0.5,0.1-1.1,0.1-1.5,0c-1.5-0.4-2.8-1.9-3.9-4.7c-0.1-0.2-0.6-1.9-1.4-5.1c-0.5-1.7-0.9-3.5-1.4-5.2
	c-0.4-1.5-1-2.9-1.5-3.7c-0.4-0.6-0.9-1-1.3-1c-0.2,0-0.2,0-0.5,0.1c-0.3,0.1-1,0.6-1.7,1.1c-0.2,0.1-0.4,0.2-0.4,0.3
	c0,0-0.3-0.3-0.7-0.9c-0.2-0.3-0.5-0.6-0.7-1c0,0,0-0.1,0.5-0.5c1.1-1,2.1-1.9,3.2-2.9c1.5-1.3,2.3-2,3.3-2.7c1-0.7,1.7-0.9,2.5-1
	c2-0.1,3.2,1.1,3.9,3.6c0.2,0.6,0.2,1,0.5,2.6c0.7,4.2,0.9,5.7,1.4,7.5c0.5,2.1,1.1,3.3,1.7,3.6c0.2,0.1,0.2,0.1,0.4,0.1
	c0.7-0.1,1.6-1.1,3-3.3c1.1-1.8,1.8-3.2,2-4.3c0.1-0.3,0.1-0.4,0.1-1c0-0.5,0-0.7-0.1-0.8c-0.2-0.6-0.4-0.9-0.9-1.1
	c-0.4-0.2-0.6-0.2-1.2-0.2c-0.7,0-1.3,0.1-2,0.4c-0.2,0.1-0.3,0.1-0.3,0.1c0,0,0.1-0.3,0.2-0.5c0.5-1.6,1.2-2.9,2-3.9
	c0.3-0.4,0.9-1,1.3-1.3c0.6-0.5,1.4-0.9,2.1-1.2c1.5-0.6,3.6-0.7,4.9-0.2c1.8,0.6,2.7,2.1,2.9,4.7l0,0.2l0.1-0.1
	c0.1-0.1,0.6-0.6,1.2-1.1c2.4-2.2,3.7-3.2,4.9-3.5c0.2-0.1,0.4-0.1,0.7-0.1c1.4-0.1,2.4,0.4,3.1,1.4c0.6,0.9,0.9,2.2,0.8,3.6
	c0,0.4-0.1,0.7-0.3,2c-0.5,2.4-1,5.2-1.5,8.6c-0.2,1.1-0.2,1.2-0.2,1.6c0,1,0.3,1.6,0.7,2.1c0.2,0.2,0.3,0.3,0.5,0.3
	c0.4,0.2,1,0.3,1.4,0.2c0.2-0.1,0.7-0.3,1.1-0.5c0.7-0.4,2.1-1.5,2.2-1.7c0,0,0.1-0.4,0.1-0.8c0.1-0.4,0.2-1.5,0.4-2.5
	c0.3-1.9,0.5-3,0.6-4c0.1-0.8,0.1-1.7,0.1-2c0-0.5-0.4-0.8-0.8-0.7c-0.3,0.1-0.9,0.5-1.8,1.1c-0.4,0.3-0.4,0.3-0.5,0.3
	c-0.2-0.2-1.6-1.9-1.6-1.9c0,0,0.1-0.1,0.2-0.2c0.3-0.2,1.6-1.5,3.2-3c1.9-1.8,2.5-2.4,3.3-3c0.6-0.5,1.1-0.7,1.5-0.9
	c0.2-0.1,0.3-0.1,0.6-0.1c0.2,0,0.5,0,0.6,0c0.8,0.2,1.5,0.7,2,1.5c0.6,0.8,0.9,1.7,1.1,2.8c0.1,0.6,0.1,1.7,0,2.1
	c0,0.2-0.1,0.3-0.1,0.3s0.1-0.1,0.2-0.3c0.8-1.1,1.9-2.3,3.1-3.2c0.3-0.3,1.1-0.8,1.5-1c1.7-1,3.6-1.5,5.5-1.6
	c1.8-0.1,3.1,0.4,4,1.3c0.3,0.3,0.6,0.7,0.8,1.2c0.4,0.9,0.6,1.8,0.6,3.1l0,0.6l0.5-0.5c0.3-0.3,0.6-0.6,0.9-0.9
	c0.4-0.5,1.2-1.3,1.7-1.7c1.9-1.8,4-2.8,6.2-3.1c0.5-0.1,1.4-0.1,1.9,0c1.3,0.1,2.3,0.6,3,1.3c1.1,1.1,1.5,2.7,1.4,4.9
	c-0.1,1.6-0.3,3-1,5.9c-0.8,3.6-0.9,4.4-0.8,5.4c0.1,0.8,0.2,1.1,0.6,1.3c0.3,0.2,0.6,0.2,1.1,0.2c0.4,0,0.5,0,0.7-0.1
	c0.3-0.1,0.7-0.3,1.1-0.5c0.2-0.1,0.3-0.2,0.3-0.2c0-0.2-0.1-1.3-0.1-1.9c0.1-2.1,0.5-4,1.5-5.9c0.7-1.3,1.4-2.5,2.5-3.8
	c3-3.7,6.7-5.9,10.8-6.7c1.7-0.3,3.6-0.4,5.1-0.2c2.7,0.4,4.5,1.5,5.2,3.6c0.2,0.7,0.4,1.4,0.4,2.2c0,0.9-0.1,1.4-0.3,2.2
	c-0.6,1.8-2,3.6-4.2,5.5c-2.6,2.2-5.8,3.8-9.4,4.6c-0.5,0.1-1.4,0.3-1.5,0.3c0,0,0.3,0.4,0.5,0.6c0.7,0.7,1.5,1,2.6,1.2
	c0.4,0,1.9,0,2.6,0c2.9-0.3,5.7-1.1,9.1-2.5l0.7-0.3l0-0.2c-0.1-0.9-0.1-2.1,0-3c0.2-2.3,1-4.5,2.4-6.6c0.6-0.8,1-1.5,1.8-2.3
	c1.7-1.9,3.3-3.1,5.2-4.1c2.2-1.1,4.6-1.7,7.3-1.7c1.1,0,1.9,0,2.8,0.2c1.3,0.3,2.5,0.8,3.5,1.5c0.6,0.4,1.3,1.2,1.9,2
	c1.3,1.9,2,4.3,1.9,7.2c-0.1,2.6-0.6,4.9-1.6,7c-0.9,1.9-2.3,4-4,5.5c-2.5,2.3-5.4,3.6-8.8,4C181.2,477.3,179.4,477.3,179,477.3
	L179,477.3z M181.2,471.2c1.8-0.2,3.4-1.5,4.8-3.8c1.4-2.3,2.1-4.8,2-7.3c0-1-0.2-1.7-0.4-2.6c-0.3-0.8-0.5-1.2-0.9-1.5
	c-0.4-0.3-0.7-0.4-1.4-0.4c-0.8,0.1-1.5,0.2-2.2,0.6c-1.3,0.6-2.3,1.7-3.3,3.3c-1.3,2.1-2,4.3-2.1,6.7c-0.1,1.3,0.1,2.4,0.6,3.4
	c0.4,0.7,0.8,1.2,1.3,1.4C180,471.3,180.6,471.3,181.2,471.2L181.2,471.2z M153.1,465.9c2.8-1.1,5.3-3.1,6.8-5.3
	c0.5-0.7,0.8-1.4,0.9-1.9c0-0.3,0-0.8,0-1.1c-0.1-0.2-0.2-0.5-0.3-0.7c-0.1-0.1-0.4-0.3-0.6-0.4c-0.2-0.1-0.9-0.1-1.2,0
	c-1.3,0.3-2.5,1.2-3.7,2.9c-1.3,1.8-2.1,3.5-2.3,5.2c0,0.4,0,1.4,0,1.4C152.7,466.1,152.9,466,153.1,465.9L153.1,465.9z M93.1,445.7
	c-0.7-0.1-1.4-0.3-1.9-0.5c-0.3-0.1-0.6-0.5-0.8-0.7c-0.2-0.3-0.4-0.8-0.5-1.3c-0.1-0.4-0.1-1.2,0-1.6c0.2-0.8,0.6-1.5,1.3-2.3
	c1.4-1.4,3-2.2,4.7-2.4c1.1-0.1,1.9,0.1,2.5,0.6c0.6,0.5,1.2,1.3,1.4,2c0.1,0.4,0.1,1,0.1,1.4c-0.2,1-0.7,2-1.7,3
	c-1.1,1-2.2,1.6-3.5,1.8C94.3,445.8,93.4,445.8,93.1,445.7z"/>
<g>
	<path fill="#FF7977" d="M619.9,889.4c0-2.9-0.7-5.7-1.8-8.4c-0.8-2.1-1.8-4.1-2.7-6.1c-7.3-16-15-31.7-23-47.3
		c-1.1-2.2-2.2-4.4-3.4-6.5c-1.2-2.1-2.5-4.1-4.3-5.7c-2.8-2.7-6.6-4.3-10.5-4.5h-1.8c-4,0.2-7.9,1.9-10.8,4.7
		c-1.7,1.6-3,3.6-4.2,5.6c-1.2,2.1-2.3,4.3-3.4,6.4c-5.4,10.5-10.6,21-15.7,31.6c-3,6.4-6,12.7-8.9,19.2c-1.2,2.7-2.3,5.4-2.7,8.4
		c-0.8,4.9,0.3,10.1,3,14.3c2.3,3.7,5.7,6.6,9.7,8.4c3.1,1.3,6.5,1.9,9.9,1.7c4.5-0.2,8.9-1.9,12.7-4.2c4.3-2.6,7.9-6.1,11.3-9.7
		c3.2,3.4,6.5,6.6,10.4,9.2c3.8,2.5,8.1,4.3,12.6,4.7c4.9,0.5,10-0.7,14.1-3.4c3.6-2.4,6.5-5.9,8.1-9.9
		C619.4,895,619.9,892.3,619.9,889.4L619.9,889.4z M573.2,887.5c-1.2-1.4-2.3-3-3.4-4.6c-1.8-2.7-3.5-5.5-4.8-8.5
		c-1.1-2.5-2-5-2.3-7.7c-0.3-2.1-0.2-4.4,0.6-6.4c0.7-1.9,2-3.5,3.7-4.6c4.1-2.6,9.8-2.3,13.5,0.8c1.9,1.6,3,3.9,3.3,6.3
		c0.4,3.2-0.4,6.4-1.5,9.4C580.2,877.9,576.8,882.9,573.2,887.5L573.2,887.5z M613,894.3c-1.1,3.7-3.7,7-7.1,8.9
		c-3,1.7-6.6,2.3-10,1.7c-4.3-0.7-8.2-3-11.6-5.7c-2.5-2-4.7-4.3-6.9-6.6c3.4-4.3,6.6-8.7,9-13.6c2.1-4.3,3.7-8.9,3.9-13.7
		c0.1-3.1-0.5-6.2-1.9-8.9c-1.9-3.6-5.2-6.4-9-7.8c-3.6-1.3-7.6-1.4-11.2-0.4c-3.4,1-6.6,3-8.7,5.9c-1.9,2.5-3,5.6-3.2,8.7
		c-0.4,4.5,0.7,9,2.4,13.1c2.5,6,6.3,11.5,10.4,16.6c-1.9,2.1-3.9,4.1-6,6c-3.3,2.8-7.1,5.3-11.5,6.2c-3.5,0.8-7.3,0.4-10.5-1.2
		c-3.8-1.9-6.6-5.4-7.7-9.4c-0.8-3-0.6-6.2,0.3-9.1c0.8-2.4,1.9-4.7,3-7c7.2-15.8,14.8-31.4,22.8-46.8c1.2-2.3,2.4-4.6,3.6-6.9
		c1-1.8,2.2-3.6,3.9-4.9c1.8-1.4,4.1-2.2,6.4-2.1c2.4,0,4.7,0.8,6.5,2.4c1.8,1.5,3,3.5,4.1,5.5c2.5,4.6,4.8,9.3,7.2,13.9
		c6.7,13.3,13.2,26.8,19.4,40.4c0.9,2.1,1.9,4.2,2.6,6.4C613.8,888.6,613.8,891.6,613,894.3L613,894.3z M538.1,923.5
		c2-0.5,4.2,0.9,4.8,2.9c0.7,2.1-0.6,4.5-2.7,5c-2,0.7-4.4-0.5-5.1-2.5c-0.6-1.7,0-3.8,1.6-4.8C537,923.9,537.6,923.6,538.1,923.5z
		 M551.8,936.8c1.2-1.3,2.9-2.2,4.7-2.4c1.2-0.1,2.4,0,3.5,0.2c0,1.9,0,3.7,0,5.6c-1.8-0.5-3.8-0.6-5.6,0.1c-1,0.4-1.8,0.9-2.6,1.7
		c-0.2,0.1-0.1,0.3-0.1,0.5c0,5.2,0,10.4,0,15.7c0,0.2,0,0.4-0.1,0.6c-2,0-4,0-6.1,0c0-8,0-15.9,0-23.9c1.7,0,3.4,0,5.1,0
		c0.4,0,0.8,0.2,0.9,0.5C551.8,935.9,551.8,936.4,551.8,936.8z M595.2,936.8c1.6-1.7,4-2.5,6.2-2.5c2.4-0.1,4.9,0.7,6.8,2.2
		c1.2,1,2.1,2.3,2.6,3.9c0.5,1.9,0.5,3.8,0.5,5.7c0,4.2,0,8.4,0,12.6c-2,0-4.1,0-6.1,0c0-4.2,0-8.4,0-12.6c0-1.6,0.1-3.3-0.8-4.6
		c-0.6-1-1.7-1.5-2.8-1.6c-2.1-0.3-4.3,0.5-5.8,2c-0.2,0.2-0.3,0.4-0.3,0.6c0,0.7,0.1,1.3,0,2c-0.1,0.9,0,1.8,0,2.7c0,1.7,0,3.4,0,5
		c-0.1,2.2,0.1,4.4,0,6.7c-2,0-4,0-6.1,0c0-8,0-15.9,0-23.9c1.6,0,3.1,0,4.7,0c0.4,0,0.8,0.2,1,0.6
		C595.3,936,595.2,936.4,595.2,936.8L595.2,936.8z M535.9,958.8c0-8,0-15.9,0-23.9c2,0,4,0,6.1,0c0,8,0,15.9,0,23.9
		C539.9,958.8,537.9,958.8,535.9,958.8z M532.1,934.9c-1.6,0-3.2,0-4.8,0c-0.4,0-1,0-1.2,0.5c-0.2,0.5-0.1,1-0.1,1.4
		c-1.3-1.4-3.2-2.3-5.1-2.4c-3-0.3-6,0.6-8.4,2.4c-2,1.5-3.4,3.6-4.2,5.9c-0.4,1.1-0.5,2.2-0.7,3.4v1.6c0.2,3.4,1.7,6.8,4.3,9
		c2,1.7,4.6,2.6,7.2,2.8h1.4c2.1-0.1,4.1-1,5.5-2.5c0,0.5-0.1,1,0.1,1.5c0.2,0.4,0.6,0.5,1,0.5c1.6,0,3.3,0,5,0
		C532.1,950.8,532.1,942.9,532.1,934.9L532.1,934.9z M525.8,951.4c-1.2,1.5-3.2,2.4-5.1,2.3c-2.1,0-4.2-0.8-5.5-2.4
		c-1.3-1.5-1.7-3.7-1.4-5.7c0.2-1.6,1-3.1,2.3-4.1c1.2-0.9,2.6-1.4,4.1-1.5c2.2-0.2,4.5,0.8,5.8,2.5c0.1,2.6,0,5.2,0,7.8
		C526,950.7,526.1,951.1,525.8,951.4L525.8,951.4z M586,941.8c-0.9-2.3-2.6-4.3-4.7-5.6c-2.2-1.4-4.8-2-7.3-1.8c-2,0.1-4,1-5.4,2.5
		c0-4.5,0-8.9,0-13.4c-2,0-4.1,0-6.1,0c0,11.8,0,23.6,0,35.3c1.7,0,3.4,0,5.1,0c0.4,0,0.9-0.2,1-0.6c0.1-0.4,0.1-0.9,0.1-1.3
		c1.4,1.6,3.5,2.4,5.6,2.6h1.2c3.4-0.2,6.7-1.8,8.8-4.4C587.2,951.4,587.8,946.1,586,941.8L586,941.8z M578.9,951.8
		c-1.4,1.3-3.2,1.9-5.1,1.9c-1.9,0-3.8-0.8-5.1-2.3c-0.2-0.2-0.2-0.4-0.2-0.6c0-2.7,0-5.5,0-8.2c1.2-1.5,3-2.5,5-2.6
		c1.9-0.1,4,0.5,5.4,1.9c1.4,1.3,2,3.1,2,5C580.9,948.7,580.3,950.6,578.9,951.8z M636.2,938.8c-2.6-3.3-7-5-11.1-4.3
		c-1.7,0.3-3.4,1.1-4.6,2.4c0-4.5,0-8.9,0-13.4c-2,0-4.1,0-6.1,0c0,11.8,0,23.6,0,35.3c1.6,0,3.2,0,4.8,0c0.4,0,0.9,0,1.2-0.5
		c0.2-0.5,0.1-1,0.1-1.5c1.4,1.5,3.4,2.4,5.5,2.5h1.4c3.3-0.2,6.6-1.7,8.7-4.4c1.7-2.1,2.7-4.8,2.8-7.4V946
		C638.7,943.4,637.9,940.8,636.2,938.8L636.2,938.8z M631.4,951.1c-1.6,2.1-4.5,2.8-7,2.4c-1.5-0.3-3-1.1-3.9-2.4c-0.1-1,0-2,0-3
		c0-1.9,0-3.7,0-5.6c0.9-1.3,2.4-2.1,3.9-2.4c2.8-0.5,6.1,0.6,7.5,3.2C633.3,945.7,633.1,948.9,631.4,951.1L631.4,951.1z"/>
</g>
<path fill="#2EBD59" d="M415.3,97.5c-16.1,0-29.2,13.1-29.2,29.2c0,16.1,13.1,29.2,29.2,29.2c16.1,0,29.2-13.1,29.2-29.2
	C444.5,110.5,431.4,97.5,415.3,97.5L415.3,97.5z M428.7,139.5c-0.5,0.9-1.6,1.1-2.5,0.6c-6.9-4.2-15.5-5.1-25.6-2.8
	c-1,0.2-2-0.4-2.2-1.4c-0.2-1,0.4-2,1.4-2.2c11.1-2.5,20.6-1.4,28.3,3.3C428.9,137.6,429.2,138.7,428.7,139.5L428.7,139.5z
	 M432.3,131.6c-0.7,1.1-2.1,1.4-3.1,0.7c-7.8-4.8-19.8-6.2-29.1-3.4c-1.2,0.4-2.5-0.3-2.8-1.5c-0.4-1.2,0.3-2.5,1.5-2.8
	c10.6-3.2,23.8-1.7,32.8,3.9C432.6,129.1,432.9,130.5,432.3,131.6L432.3,131.6L432.3,131.6z M432.6,123.3
	c-9.4-5.6-24.9-6.1-33.9-3.4c-1.4,0.4-3-0.4-3.4-1.8c-0.4-1.4,0.4-3,1.8-3.4c10.3-3.1,27.4-2.5,38.3,3.9c1.3,0.8,1.7,2.4,1,3.7
	C435.5,123.7,433.9,124.1,432.6,123.3L432.6,123.3z M465.5,124.4c-5-1.2-5.9-2-5.9-3.8c0-1.7,1.6-2.8,3.9-2.8c2.3,0,4.5,0.9,6.9,2.6
	c0.1,0.1,0.2,0.1,0.2,0.1c0.1,0,0.2-0.1,0.2-0.1l2.5-3.5c0.1-0.1,0.1-0.3-0.1-0.4c-2.8-2.3-6-3.4-9.7-3.4c-5.4,0-9.2,3.3-9.2,7.9
	c0,5,3.3,6.8,8.9,8.1c4.8,1.1,5.6,2,5.6,3.7c0,1.8-1.6,3-4.3,3c-2.9,0-5.3-1-8-3.3c-0.1-0.1-0.2-0.1-0.2-0.1c-0.1,0-0.2,0-0.2,0.1
	l-2.8,3.3c-0.1,0.1-0.1,0.3,0,0.5c3.1,2.8,7,4.3,11.1,4.3c5.9,0,9.6-3.2,9.6-8.2C474.2,128.2,471.7,125.9,465.5,124.4L465.5,124.4
	L465.5,124.4z M487.4,119.4c-2.5,0-4.6,1-6.3,3.1v-2.3c0-0.2-0.1-0.3-0.3-0.3h-4.5c-0.2,0-0.3,0.1-0.3,0.3v25.6
	c0,0.2,0.1,0.3,0.3,0.3h4.5c0.2,0,0.3-0.1,0.3-0.3v-8.1c1.7,1.9,3.8,2.9,6.3,2.9c4.7,0,9.5-3.6,9.5-10.6
	C496.9,123,492.1,119.4,487.4,119.4L487.4,119.4L487.4,119.4z M491.7,130c0,3.5-2.2,6-5.3,6c-3.1,0-5.4-2.6-5.4-6c0-3.4,2.3-6,5.4-6
	C489.4,124,491.7,126.5,491.7,130L491.7,130L491.7,130z M509.2,119.4c-6.1,0-10.8,4.7-10.8,10.7c0,5.9,4.7,10.5,10.8,10.5
	c6.1,0,10.9-4.7,10.9-10.6C520,124.1,515.2,119.4,509.2,119.4L509.2,119.4L509.2,119.4z M509.2,136c-3.2,0-5.7-2.6-5.7-6
	c0-3.5,2.4-6,5.6-6c3.3,0,5.7,2.6,5.7,6C514.8,133.5,512.4,136,509.2,136L509.2,136L509.2,136z M532.9,119.8h-5v-5.1
	c0-0.2-0.1-0.3-0.3-0.3h-4.5c-0.2,0-0.3,0.1-0.3,0.3v5.1h-2.2c-0.2,0-0.3,0.1-0.3,0.3v3.9c0,0.2,0.1,0.3,0.3,0.3h2.2v10
	c0,4.1,2,6.1,6,6.1c1.6,0,3-0.3,4.2-1.1c0.1-0.1,0.2-0.2,0.2-0.3v-3.7c0-0.1-0.1-0.2-0.2-0.3c-0.1-0.1-0.2-0.1-0.3,0
	c-0.9,0.4-1.7,0.6-2.6,0.6c-1.4,0-2.1-0.7-2.1-2.1v-9.3h5c0.2,0,0.3-0.1,0.3-0.3v-3.9C533.3,120,533.1,119.8,532.9,119.8
	L532.9,119.8z M550.2,119.8v-0.6c0-1.8,0.7-2.7,2.3-2.7c0.9,0,1.7,0.2,2.5,0.5c0.1,0,0.2,0,0.3,0c0.1-0.1,0.1-0.2,0.1-0.3v-3.8
	c0-0.1-0.1-0.3-0.2-0.3c-0.9-0.3-2-0.5-3.7-0.5c-4.2,0-6.4,2.3-6.4,6.8v1H543c-0.2,0-0.3,0.1-0.3,0.3v3.9c0,0.2,0.1,0.3,0.3,0.3h2.2
	v15.5c0,0.2,0.1,0.3,0.3,0.3h4.5c0.2,0,0.3-0.1,0.3-0.3v-15.5h4.2l6.5,15.5c-0.7,1.6-1.5,1.9-2.4,1.9c-0.8,0-1.6-0.2-2.5-0.7
	c-0.1,0-0.2-0.1-0.3,0c-0.1,0-0.2,0.1-0.2,0.2l-1.5,3.4c-0.1,0.2,0,0.3,0.1,0.4c1.6,0.9,3,1.2,4.8,1.2c3.3,0,5.2-1.6,6.8-5.7
	l7.8-20.2c0-0.1,0-0.2,0-0.3c-0.1-0.1-0.2-0.1-0.3-0.1h-4.7c-0.1,0-0.3,0.1-0.3,0.2l-4.8,13.7l-5.3-13.7c0-0.1-0.2-0.2-0.3-0.2
	L550.2,119.8L550.2,119.8L550.2,119.8z M540.2,119.8h-4.5c-0.2,0-0.3,0.1-0.3,0.3v19.7c0,0.2,0.1,0.3,0.3,0.3h4.5
	c0.2,0,0.3-0.1,0.3-0.3v-19.7C540.5,120,540.4,119.8,540.2,119.8C540.2,119.8,540.2,119.8,540.2,119.8L540.2,119.8z M538,110.9
	c-1.8,0-3.2,1.4-3.2,3.2c0,1.8,1.5,3.2,3.2,3.2c1.8,0,3.2-1.4,3.2-3.2C541.2,112.3,539.8,110.9,538,110.9L538,110.9L538,110.9z"/>
</svg>
