<?xml version="1.0" encoding="utf-8"?>
<!-- Generator: Adobe Illustrator 21.0.0, SVG Export Plug-In . SVG Version: 6.00 Build 0)  -->
<svg version="1.1" id="Layer_1" xmlns="http://www.w3.org/2000/svg" xmlns:xlink="http://www.w3.org/1999/xlink" x="0px" y="0px"
	 viewBox="0 0 414 142" enable-background="new 0 0 414 142" xml:space="preserve">
<g id="_x34_LzZbc.tif">
	<g>
		<path fill="#FFFFFF" d="M143.2,32.3c-3.8,0-7,0.1-10.1,0c-0.6,0-1.3-0.6-1.9-1c-5.6-3.9-11.7-6.7-18.3-8.7
			c-4.6-1.4-9.3-2.6-14.1-3.3c-3.8-0.5-7.8-0.2-11.7-0.3C75,18.7,63.5,21.6,52.6,27C44,31.3,36.5,37.1,31.1,45.1
			c-5.2,7.6-7.9,16.2-6.8,25.4c1,8.7,4.6,16.4,10.6,23c9.4,10.3,21.2,16.2,34.6,19.4c7.5,1.8,15,2.6,22.7,2.1
			c4.3-0.3,8.7-0.9,12.9-1.7c1.4-0.3,2.5-0.3,3.8,0.3c10,4.3,20,8.5,30,12.8c0.6,0.3,1.3,0.3,2.1,0.5c0-4,0.1-7.7,0-11.4
			c-0.1-3.9-0.5-7.8-0.6-11.6c0-2.6,1.4-3.4,5.1-3.2c-1.2,1.2-2.2,2.4-3.3,3.6c1.3,10.1,2.6,20.2,3.9,30.7c-1.7-0.4-3.2-0.7-4.7-1.2
			c-10.4-3.5-20.8-7-31.1-10.8c-2.6-1-4.9-0.9-7.3-0.4c-6.9,1.6-13.9,2.3-20.9,1.9c-13.8-0.8-27-3.8-39.1-10.8
			c-5.9-3.4-11.4-7.4-16.1-12.4c-7.2-7.6-12-16.5-13.6-26.8c-1.8-11.5,0.4-22.5,6.7-32.6C27.5,30,38,21.9,50.7,16.4
			c7.3-3.2,15-5.3,23-6.1c12.6-1.4,24.9-0.7,37,2.8c11.1,3.2,20.9,8.8,29.7,16.2c0.4,0.3,0.6,0.8,0.9,1.1
			C141.8,30.9,142.2,31.3,143.2,32.3z"/>
		<path fill="#FFFFFF" d="M256.7,84.3c-3.2,0-6.2,0-9.5,0c-0.2-0.9-0.4-1.7-0.6-2.6c-0.2,0-0.5,0-0.6,0.1c-8,6.9-19.6,4.6-24.1-5
			c-3.3-6.9-3.2-14.1,0-21.1c4.2-9,15.9-11.2,22.8-5.5c0.5,0.4,1.1,0.8,1.9,1.4c0-3.1,0-5.9,0-8.7c0-2.8,0-5.6,0-8.6
			c3.4,0,6.6,0,10,0C256.7,50.8,256.7,67.3,256.7,84.3z M247,67.6c0.1-3.6-0.6-6.8-1.9-9.1c-2.7-4.8-11-4.7-13.4,0.1
			c-2.5,4.9-2.6,9.8-0.3,14.7c1.5,3.2,4.2,4.9,7.9,4.6c3.5-0.3,5.6-2.2,6.6-5.3C246.5,70.9,246.7,69.2,247,67.6z"/>
		<path fill="#FFFFFF" d="M120.1,81.8c-2.7,1.2-5.1,2.4-7.7,3.3c-5.7,2-13.7-0.9-16.8-7.6c-3.9-8.2-3.4-16.3,1.4-24.2
			c4.3-7.1,17.6-8.9,23.6-1.3c0.1-1.4,0.2-2.5,0.3-3.9c3,0,6,0,9,0c0.7,2.5,0.8,44.6,0.2,49.1c-3.1,0-6.2,0-9.6,0
			c-0.7-2.5-0.2-5.2-0.3-7.8C120.1,86.9,120.1,84.3,120.1,81.8z M112.1,55c-3.7,0-6.2,1.7-7.5,5.1c-1.6,4-1.6,8-0.2,12
			c1.2,3.4,3.6,5.4,6.8,5.6c3.9,0.3,6.6-1.2,8.2-4.8c2.1-4.7,1.7-9.5-0.5-14C117.7,56.4,115.3,54.7,112.1,55z"/>
		<path fill="#FFFFFF" d="M367,47.9c3,0,5.8,0,8.9,0c0.2,1.1,0.3,2.1,0.5,3.1c0.2,0,0.5,0.1,0.6,0c6-5.1,13.7-5.7,19.9-1
			c3.7,2.8,5.6,6.9,6.4,11.4c0.9,5,0.3,9.8-1.4,14.6c-3.6,10.1-16.2,12.4-23.4,6.3c-0.4-0.3-0.7-0.6-1.5-1.2c0,5.6,0,10.7,0,16.1
			c-3.5,0-6.6,0-9.7,0C366.5,94.8,366.3,53,367,47.9z M393.5,66.6c-0.5-2.3-0.7-4.8-1.6-7c-2.1-5.2-8.6-6.4-12.5-2.4
			c-4,4-4.4,12.6-0.9,17.5c3.3,4.5,10.1,4.1,13.1-0.7C393.1,71.7,393.2,69.3,393.5,66.6z"/>
		<path fill="#FFFFFF" d="M289.1,84.1c0-5.9,0.1-11.7,0-17.4c0-2.3-0.3-4.6-0.6-6.8c-0.6-3.6-3.7-5.5-7.3-4.6
			c-3.9,1-5.5,2.9-5.9,7.2c-0.1,1.2-0.1,2.4-0.1,3.7c0,5.9,0,11.7,0,17.7c-1.7,0.9-3.6,0.4-5.3,0.5c-1.7,0.1-3.4,0-5.1,0
			c0-16.8,0-33.3,0-50.2c3.4-0.4,6.7-0.4,10.3,0.1c0,6.1,0,11.8,0,17.9c0.8-0.6,1.3-0.8,1.7-1.2c4.4-4.5,10.7-5.1,16.8-2.3
			c2.6,1.2,4.1,3.7,4.9,6.5c0.5,1.7,0.8,3.6,0.8,5.4c0.1,7.8,0,15.6,0,23.6C296,84.1,292.7,84.1,289.1,84.1z"/>
		<path fill="#FFFFFF" d="M189.7,59.4c-3.2,0-6.5,0-9.8,0c0.3-5.8,2.7-9.1,7.9-10.8c6-2,12.1-2.1,18.2-0.1c4.9,1.6,6.9,4.3,7,9.4
			c0.1,4.4,0,8.8,0,13.2c0.1,4.4,0.2,8.7,0.3,13.3c-3,0-6.2,0-9.5,0c-0.2-0.6-0.4-1.3-0.7-2.2c-0.7,0.4-1.5,0.6-2.2,1
			c-4.5,2.7-9.3,3.4-14.3,2c-7.4-2-9.2-8.1-7.5-14.2c1.2-4.3,4.9-6.2,9-6.9c3.2-0.6,6.5-1,9.7-1.5c0.5-0.1,1-0.1,1.4-0.2
			c2.2-0.6,3.6-2.2,3.5-4c-0.1-2.1-1.7-3.6-4.1-4C193.6,53.4,191.6,54.6,189.7,59.4z M202.6,67.4c-2.2,0.5-4.3,0.9-6.4,1.4
			c-1.4,0.3-2.9,0.4-4.2,0.9c-2.4,0.9-3.5,3-3.1,5.5c0.4,2,2.1,3.2,4.6,3.3c1.1,0.1,2.2,0.1,3.3,0c2.6-0.3,4.4-1.7,5.4-4.2
			C203,72.1,202.9,69.9,202.6,67.4z"/>
		<path fill="#FFFFFF" d="M341.8,69c-8.7,0-17,0-25.2,0c-0.7,3.9,0.8,6.7,4.2,8.2c4.2,1.8,8.3,0.4,11.4-3.6c2.9,0,5.8,0,8.7,0
			c-1.5,7.2-7.5,11.4-13.8,12.2c-3.9,0.5-7.7,0-11.4-1.6c-5.3-2.3-8.2-6.6-9.7-12c-1.7-6.2-0.5-12,2.8-17.4
			c2.7-4.3,6.9-6.7,11.8-7.5c4.8-0.7,9.4-0.1,13.6,2.8c4.7,3.2,6.5,7.9,7.4,13.1C342,64.9,341.8,66.7,341.8,69z M315.8,62.1
			c5.4,0,10.5,0,15.7,0c-1.1-5.5-2.9-7.1-7.6-7.1C319.3,55,316.8,57.1,315.8,62.1z"/>
		<path fill="#FFFFFF" d="M161.9,48c3.5,0,6.6,0,9.9,0c0,12.1,0,24.1,0,36.2c-3.1,0-6,0-9.1,0c-0.1-1.1-0.3-2.2-0.5-3.7
			c-0.9,0.7-1.8,1.3-2.5,2c-3.8,3.7-11.7,4.4-17,1.1c-3.6-2.2-4.8-5.9-4.9-9.7c-0.3-8.5-0.1-17-0.1-25.7c3.3,0,6.5,0,9.9,0
			c0.1,0.8,0.2,1.7,0.3,2.6c0,5.9,0,11.7,0,17.6c0,1.6,0.2,3.1,0.6,4.6c0.8,3.2,2.4,4.7,5.3,4.6c2.7,0,5.5-0.6,6.6-3.6
			c0.7-1.9,1.2-4,1.3-6c0.2-6.1,0.1-12.2,0.1-18.3C161.8,49.3,161.9,48.8,161.9,48z"/>
		<path fill="#FFFFFF" d="M87.8,58.9c-3.1,0-5.8,0-8.9,0c-0.3-0.6-0.5-1.4-1-2c-0.9-0.9-1.9-2.1-3-2.4c-1.9-0.4-3.9-0.3-5.8-0.1
			c-1.3,0.1-2.2,1-2.5,2.3c-0.3,1.4,0.3,2.5,1.4,3.1c1.7,0.8,3.6,1.4,5.5,1.9c2.9,0.8,5.9,1.3,8.7,2.3c3.8,1.3,6.7,3.7,7,8
			c0.3,4.7-1.1,8.8-5.5,11.1c-7.4,3.9-14.9,3.8-22.4,0.1c-3.8-1.9-5.1-4.3-6.2-10.3c3.2,0,6.3,0,9.1,0c1.1,1.5,1.9,3.1,3.1,4.3
			c1.4,1.3,3.2,1.5,5.1,1.5c3.8-0.1,5.1-0.9,6.4-4.7c-1.4-3-4.4-3.4-7.2-4.2c-3.4-0.9-6.8-1.8-10.1-2.9c-7.7-2.4-6.7-13.7-1.6-16.6
			c2.1-1.2,4.3-2.2,6.7-2.7c4.8-1,9.7-0.7,14.3,1.1C85.4,50.2,87.8,53.8,87.8,58.9z"/>
		<path fill="#FFFFFF" d="M348.8,34.2c3.5-0.4,6.8-0.3,9.9-0.1c0,17,0,33.5,0,50.2c-3.4,0-6.6,0-9.7,0
			C348.3,81.8,348.1,41.2,348.8,34.2z"/>
	</g>
</g>
</svg>
